<?xml version="1.0" encoding="UTF-8"?>
<svg width="48px" height="48px" viewBox="0 0 48 48" version="1.1" xmlns="http://www.w3.org/2000/svg" xmlns:xlink="http://www.w3.org/1999/xlink">
    <!-- Generator: Sketch 41.2 (35397) - http://www.bohemiancoding.com/sketch -->
    <title>fb_b</title>
    <desc>Created with Sketch.</desc>
    <defs></defs>
    <g id="Page-1" stroke="none" stroke-width="1" fill="none" fill-rule="evenodd">
        <g id="Artboard" fill="#148ECE">
            <g id="fb_b" transform="translate(16.000000, 10.000000)">
                <path d="M8,9.5 L8,6 C8,5.5 8,3 11,3 L14.5,3 L15,0 L11,0 C7,0 5,2 5,6 L5,9.5 C5,9.5 5,10 4.5,10 L0,10 L0,13 L4.5,13 C5,13 5,13.5 5,13.5 L5,28 L8,28 L8,13.5 C8,13 8.5,13 8.5,13 L13,13 L14,10 L8.5,10 C8,10 8,9.5 8,9.5 Z" id="Shape"></path>
            </g>
        </g>
    </g>
</svg>