<?xml version="1.0" encoding="UTF-8"?>
<svg width="64px" height="64px" viewBox="0 0 64 64" version="1.1" xmlns="http://www.w3.org/2000/svg" xmlns:xlink="http://www.w3.org/1999/xlink">
    <!-- Generator: Sketch 43.1 (39012) - http://www.bohemiancoding.com/sketch -->
    <title>i--03</title>
    <desc>Created with Sketch.</desc>
    <defs></defs>
    <g id="Page-1" stroke="none" stroke-width="1" fill="none" fill-rule="evenodd" stroke-linecap="round" stroke-linejoin="round">
        <g id="i--03" stroke-width="1.8" stroke="#212F3F">
            <g id="i--03-copy" transform="translate(11.000000, 7.000000)">
                <g id="Layer_1">
                    <path d="M41,17.8573218 L41,47.3213391 C41,48.7997394 39.8108175,50 38.3452976,50 L3.65470239,50 C2.18918248,50 1,48.7997394 1,47.3213391 L1,2.67803448 C1,1.19900772 2.18918248,0 3.65470239,0 L23.2982581,0 M40,14 L27,14 L27,1 L40,14 Z M23,23.0001753 C23,22.436963 22.5894112,22 22.0601933,22 L11.9398067,22 C11.4112478,22 11,22.436963 11,23.0001753 L11,24.9998247 C11,25.5623356 11.4112478,26 11.9398067,26 L22.0595343,26 C22.5880931,26 23,25.5623356 23,24.9998247 L23,23.0001753 L23,23.0001753 Z M31,30.9996492 C31,30.4370396 30.6131396,30 30.1145057,30 L11.8854943,30 C11.3874814,30 11,30.4370396 11,30.9996492 L11,32.9996492 C11,33.5643634 11.3874814,34 11.8854943,34 L30.1138847,34 C30.6118977,34 31,33.5643634 31,32.9996492 L31,30.9996492 L31,30.9996492 Z M31,38.9989477 C31,38.4370396 30.6131396,38 30.1145057,38 L11.8854943,38 C11.3874814,38 11,38.4370396 11,38.9989477 L11,40.9996492 C11,41.5629604 11.3874814,42 11.8854943,42 L30.1138847,42 C30.6118977,42 31,41.5629604 31,40.9996492 L31,38.9989477 L31,38.9989477 Z" id="Shape"></path>
                </g>
            </g>
        </g>
    </g>
</svg>