<?xml version="1.0" encoding="UTF-8"?>
<svg width="64px" height="64px" viewBox="0 0 64 64" version="1.1" xmlns="http://www.w3.org/2000/svg" xmlns:xlink="http://www.w3.org/1999/xlink">
    <!-- Generator: Sketch 43.1 (39012) - http://www.bohemiancoding.com/sketch -->
    <title>i--02</title>
    <desc>Created with Sketch.</desc>
    <defs></defs>
    <g id="Page-1" stroke="none" stroke-width="1" fill="none" fill-rule="evenodd" stroke-linecap="round" stroke-linejoin="round">
        <g id="i--02" stroke-width="1.8" stroke="#212F3F">
            <g id="i--02-copy" transform="translate(2.000000, 9.000000)">
                <g id="Layer_1">
                    <path d="M53.135,38 L60,38 L60,41.5006491 C60,43.433049 57.473125,45 54.385,45 L5.615625,45 C2.52625,44.9993509 0,43.4323999 0,41.5006491 L0,38 L6.865625,38 M6,30.2763905 L6,5.72424655 C6,2.57638877 8.50592475,0 11.5683086,0 L49.4323111,0 C52.4946949,0 55,2.57702586 55,5.72424655 L55,30.2763905 C55,33.4242483 52.4940752,36 49.4323111,36 L11.5683086,36 C8.50530509,36 6,33.4242483 6,30.2763905 Z M11,29.8904659 C11,30.4797902 11.507566,31 12.0826468,31 L48.9167504,31 C49.4918312,31 50,30.4797902 50,29.8904659 L50,6.108917 C50,5.52020981 49.4918312,5 48.9167504,5 L12.0826468,5 C11.507566,5 11,5.52020981 11,6.108917 L11,29.8904659 Z M35,40.4997196 C35,40.2181404 34.7606901,40 34.4543978,40 L26.5462111,40 C26.2387009,40 26,40.2198099 26,40.4997196 C26,40.7824118 26.2387009,40.9999958 26.5462111,40.9999958 L34.4537889,40.9999958 C34.7606901,41.0011087 35,40.7824118 35,40.4997196 Z" id="Shape"></path>
                </g>
            </g>
        </g>
    </g>
</svg>