<?xml version="1.0" encoding="utf-8"?>
<!-- Generator: Adobe Illustrator 16.0.0, SVG Export Plug-In . SVG Version: 6.00 Build 0)  -->
<!DOCTYPE svg PUBLIC "-//W3C//DTD SVG 1.1//EN" "http://www.w3.org/Graphics/SVG/1.1/DTD/svg11.dtd">
<svg version="1.1" id="Layer_1" xmlns="http://www.w3.org/2000/svg" xmlns:xlink="http://www.w3.org/1999/xlink" x="0px" y="0px"
	 width="100px" height="100px" viewBox="0 0 100 100" enable-background="new 0 0 100 100" xml:space="preserve">
<g>
	<path fill="none" stroke="#8AA0B4" stroke-width="2" stroke-linecap="round" stroke-linejoin="round" stroke-miterlimit="10" d="
		M82.207,38.598L82.207,38.598v47.034c0,2.36-1.915,4.276-4.275,4.276H22.068c-2.36,0-4.275-1.916-4.275-4.276V14.367
		c0-2.361,1.915-4.275,4.275-4.275h31.633 M52.104,47.725c0-0.803-0.623-1.426-1.426-1.426H35.322c-0.802,0-1.426,0.623-1.426,1.426
		v2.851c0,0.802,0.624,1.426,1.426,1.426h15.355c0.802,0,1.427-0.624,1.427-1.426V47.725L52.104,47.725z M66.104,60.126
		c0-0.802-0.623-1.425-1.426-1.425H35.322c-0.802,0-1.426,0.623-1.426,1.425v2.851c0,0.804,0.624,1.426,1.426,1.426h29.355
		c0.802,0,1.427-0.622,1.427-1.426V60.126L66.104,60.126z M66.104,72.527c0-0.801-0.623-1.424-1.426-1.424H35.322
		c-0.802,0-1.426,0.623-1.426,1.424v2.852c0,0.803,0.624,1.426,1.426,1.426h29.355c0.802,0,1.427-0.623,1.427-1.426V72.527
		L66.104,72.527z M80.426,32.896H59.402V11.873c0.623,0.4,1.158,0.802,1.604,1.247L79.18,31.293
		C79.624,31.738,80.023,32.272,80.426,32.896z"/>
</g>
</svg>
