<?xml version="1.0" encoding="utf-8"?>
<!-- Generator: Adobe Illustrator 16.0.0, SVG Export Plug-In . SVG Version: 6.00 Build 0)  -->
<!DOCTYPE svg PUBLIC "-//W3C//DTD SVG 1.1//EN" "http://www.w3.org/Graphics/SVG/1.1/DTD/svg11.dtd">
<svg version="1.1" id="Layer_1" xmlns="http://www.w3.org/2000/svg" xmlns:xlink="http://www.w3.org/1999/xlink" x="0px" y="0px"
	 width="100px" height="100px" viewBox="0 0 100 100" enable-background="new 0 0 100 100" xml:space="preserve">
<path id="path2229" fill="none" stroke="#8AA0B4" stroke-width="2" stroke-linecap="round" stroke-linejoin="round" stroke-miterlimit="10" d="
	M46.08,3L25.455,3.017c-9.604,0-16.673,7.714-16.673,16.12v43.727c0,8.143,6.372,14.827,12.776,15.857L12.882,97h11.083l5.319-9.608
	h16.7h0.017h0.017h16.7L68.038,97H79.12l-8.679-18.279c6.406-1.03,12.776-7.715,12.776-15.857V19.136
	c0-8.405-7.069-16.12-16.671-16.12L46.08,3z M40.959,8.361h5.031h0.011h0.01h5.032c0.913,0,1.701,0.763,1.701,1.675v2.95
	c0,0.91-0.747,1.69-1.701,1.69h-5.032h-0.01H45.99h-5.031c-0.956,0-1.703-0.781-1.703-1.69v-2.95
	C39.256,9.125,40.047,8.361,40.959,8.361z M26.014,19.796h19.971h0.033h19.974c5.427,0,8.305,3.888,8.305,8.342v10.714
	c0.044,5.149-3.714,8.299-8.305,8.299H46.018h-0.017h-0.017H26.014c-4.594,0-8.35-3.15-8.307-8.299V28.139
	C17.707,23.685,20.584,19.796,26.014,19.796z M25.109,55.418c4.036,0,7.306,3.271,7.306,7.309c0,4.036-3.27,7.304-7.306,7.304
	c-4.038,0-7.308-3.268-7.308-7.304C17.802,58.688,21.071,55.418,25.109,55.418z M66.721,55.418c4.038,0,7.313,3.271,7.313,7.309
	c0,4.036-3.275,7.304-7.313,7.304c-4.037,0-7.308-3.268-7.308-7.304C59.413,58.688,62.684,55.418,66.721,55.418z"/>
</svg>
