<?xml version="1.0" encoding="utf-8"?>
<!-- Generator: Adobe Illustrator 16.0.0, SVG Export Plug-In . SVG Version: 6.00 Build 0)  -->
<!DOCTYPE svg PUBLIC "-//W3C//DTD SVG 1.1//EN" "http://www.w3.org/Graphics/SVG/1.1/DTD/svg11.dtd">
<svg version="1.1" id="Layer_1" xmlns="http://www.w3.org/2000/svg" xmlns:xlink="http://www.w3.org/1999/xlink" x="0px" y="0px"
	 width="100px" height="100px" viewBox="0 0 100 100" enable-background="new 0 0 100 100" xml:space="preserve">
<g>
	<path fill="none" stroke="#8AA0B4" stroke-width="2" stroke-linecap="round" stroke-linejoin="round" stroke-miterlimit="10" d="
		M16.439,55.69H11.35c-4.513,0-8.757-2.167-8.757-7.178c0-3.657-0.138-15.934,5.597-15.934c0.948,0,4.684,3.839,10.775,3.839
		c2.078,0,4.063-0.362,6.005-1.039 M18.446,31.569c-6.078,0-11.035-4.956-11.035-11.034S12.369,9.5,18.446,9.5
		c6.077,0,11.034,4.958,11.034,11.036S24.523,31.569,18.446,31.569z M65.351,90.5H27.414c-6.944,0-11.588-4.208-11.588-11.243
		c0-9.807,2.3-24.869,15.018-24.869c1.477,0,6.859,6.031,15.538,6.031c8.68,0,14.063-6.031,15.54-6.031
		c12.715,0,15.017,15.063,15.017,24.869C76.938,86.292,72.296,90.5,65.351,90.5z M46.382,55.235
		c-9.201,0-16.667-7.467-16.667-16.667c0-9.201,7.464-16.667,16.667-16.667c9.203,0,16.667,7.466,16.667,16.667
		C63.05,47.769,55.585,55.235,46.382,55.235z M74.32,31.57c-6.079,0-11.035-4.957-11.035-11.034S68.242,9.5,74.32,9.5
		c6.077,0,11.033,4.958,11.033,11.036S80.396,31.57,74.32,31.57z M67.796,35.378c1.941,0.676,3.926,1.039,6.004,1.039
		c6.093,0,9.826-3.839,10.773-3.839c5.735,0,5.599,12.278,5.599,15.935c0,5.012-4.242,7.178-8.755,7.178h-5.089"/>
</g>
</svg>
