<?xml version="1.0" encoding="utf-8"?>
<!-- Generator: Adobe Illustrator 16.0.0, SVG Export Plug-In . SVG Version: 6.00 Build 0)  -->
<!DOCTYPE svg PUBLIC "-//W3C//DTD SVG 1.1//EN" "http://www.w3.org/Graphics/SVG/1.1/DTD/svg11.dtd">
<svg version="1.1" id="Layer_1" xmlns="http://www.w3.org/2000/svg" xmlns:xlink="http://www.w3.org/1999/xlink" x="0px" y="0px"
	 width="100px" height="100px" viewBox="0 0 100 100" enable-background="new 0 0 100 100" xml:space="preserve">
<g>
	<path fill="none" stroke="#148ECE" stroke-width="2" stroke-linecap="round" stroke-linejoin="round" stroke-miterlimit="10" d="
		M87.016,74.66H98v5.393c0,2.977-4.043,5.391-8.984,5.391H10.985C6.042,85.443,2,83.029,2,80.053V74.66h10.985 M10.462,62.08V23.542
		c0-4.941,4.044-8.985,8.986-8.985h61.104c4.942,0,8.985,4.045,8.985,8.985V62.08c0,4.941-4.044,8.984-8.985,8.984H19.448
		C14.505,71.064,10.462,67.021,10.462,62.08z M17.652,62.08c0,0.955,0.842,1.798,1.796,1.798h61.104
		c0.954,0,1.797-0.843,1.797-1.798V23.542c0-0.954-0.843-1.797-1.797-1.797H19.448c-0.954,0-1.796,0.843-1.796,1.797V62.08z
		 M57.391,78.152c0-0.506-0.393-0.898-0.896-0.898H43.508c-0.505,0-0.897,0.395-0.897,0.898c0,0.508,0.392,0.899,0.897,0.899h12.986
		C56.998,79.053,57.391,78.66,57.391,78.152z"/>
</g>
</svg>
