<?xml version="1.0" encoding="utf-8"?>
<!-- Generator: Adobe Illustrator 16.0.0, SVG Export Plug-In . SVG Version: 6.00 Build 0)  -->
<!DOCTYPE svg PUBLIC "-//W3C//DTD SVG 1.1//EN" "http://www.w3.org/Graphics/SVG/1.1/DTD/svg11.dtd">
<svg version="1.1" id="Layer_1" xmlns="http://www.w3.org/2000/svg" xmlns:xlink="http://www.w3.org/1999/xlink" x="0px" y="0px"
	 width="16px" height="16px" viewBox="0 0 16 16" enable-background="new 0 0 16 16" xml:space="preserve">
<g>
	<circle fill="#148ECE" cx="8" cy="8" r="8"/>
	<g opacity="0.9">
		<path fill="#FFFFFF" d="M12.5,6.875c0,0.205-0.17,0.375-0.375,0.375H9.5c-0.151,0-0.287-0.094-0.345-0.234
			c-0.061-0.134-0.03-0.299,0.081-0.404l0.809-0.809C9.494,5.293,8.768,5,8,5C6.348,5,5,6.348,5,8s1.348,3,3,3
			c0.931,0,1.793-0.422,2.367-1.166c0.029-0.041,0.081-0.063,0.135-0.07c0.052,0,0.104,0.017,0.146,0.052l0.802,0.81
			c0.07,0.064,0.07,0.176,0.013,0.252C10.606,11.907,9.342,12.5,8,12.5c-2.479,0-4.5-2.021-4.5-4.5S5.521,3.5,8,3.5
			c1.155,0,2.273,0.464,3.099,1.242l0.763-0.756c0.106-0.111,0.27-0.141,0.41-0.082C12.406,3.964,12.5,4.098,12.5,4.25V6.875z"/>
	</g>
</g>
</svg>
