<?xml version="1.0" encoding="utf-8"?>
<!-- Generator: Adobe Illustrator 16.0.0, SVG Export Plug-In . SVG Version: 6.00 Build 0)  -->
<!DOCTYPE svg PUBLIC "-//W3C//DTD SVG 1.1//EN" "http://www.w3.org/Graphics/SVG/1.1/DTD/svg11.dtd">
<svg version="1.1" id="Layer_1" xmlns="http://www.w3.org/2000/svg" xmlns:xlink="http://www.w3.org/1999/xlink" x="0px" y="0px"
	 width="16px" height="16px" viewBox="0 0 16 16" enable-background="new 0 0 16 16" xml:space="preserve">
<g>
	<circle fill="#148ECE" cx="8" cy="8" r="8"/>
	<g opacity="0.9">
		<path fill="#FFFFFF" d="M12.5,8c0,2.484-2.016,4.5-4.5,4.5S3.5,10.484,3.5,8S5.516,3.5,8,3.5S12.5,5.516,12.5,8z M9.471,6.665
			C9.5,6.659,9.53,6.553,9.548,6.529c0.034-0.041,0.083-0.064,0.128-0.088C9.776,6.4,9.877,6.389,9.982,6.372
			c0.099-0.024,0.221-0.024,0.299,0.063c-0.018-0.017,0.123-0.14,0.139-0.146c0.053-0.03,0.143-0.019,0.176-0.071
			c0.012-0.018,0.012-0.129,0.012-0.129c-0.098,0.013-0.135-0.082-0.141-0.164c0,0.006-0.01,0.023-0.035,0.047
			c0.008-0.088-0.105-0.024-0.146-0.036c-0.135-0.036-0.117-0.129-0.158-0.229c-0.024-0.054-0.088-0.07-0.11-0.124
			C9.992,5.551,9.982,5.476,9.93,5.469C9.895,5.463,9.829,5.592,9.817,5.585C9.765,5.557,9.74,5.599,9.701,5.621
			C9.666,5.645,9.636,5.632,9.6,5.65c0.106-0.035-0.046-0.094-0.1-0.082c0.082-0.022,0.043-0.111-0.006-0.152
			c0.014,0,0.019,0,0.031,0c-0.013-0.053-0.176-0.1-0.229-0.135S8.961,5.188,8.903,5.223c-0.071,0.04,0.018,0.158,0.018,0.216
			C8.928,5.51,8.85,5.527,8.85,5.585c0,0.101,0.188,0.083,0.141,0.218C8.961,5.885,8.85,5.901,8.805,5.967
			C8.757,6.025,8.81,6.131,8.855,6.172c0.048,0.035-0.081,0.094-0.099,0.105c-0.1,0.047-0.177-0.099-0.199-0.188
			C8.54,6.025,8.534,5.949,8.464,5.915c-0.035-0.014-0.147-0.03-0.17,0.005c-0.036-0.088-0.159-0.124-0.24-0.153
			c-0.117-0.041-0.217-0.041-0.34-0.023c0.041-0.005-0.012-0.188-0.112-0.159c0.029-0.058,0.018-0.122,0.029-0.181
			c0.011-0.046,0.036-0.093,0.07-0.134c0.012-0.023,0.141-0.158,0.101-0.164C7.9,5.117,8.012,5.123,8.094,5.042
			c0.052-0.053,0.077-0.142,0.129-0.2C8.3,4.754,8.393,4.865,8.475,4.871c0.117,0.006,0.111-0.123,0.047-0.182
			c0.077,0.006,0.013-0.135-0.029-0.152C8.44,4.519,8.24,4.572,8.346,4.613C8.323,4.602,8.183,4.894,8.1,4.748
			C8.077,4.72,8.065,4.597,8.012,4.59c-0.047,0-0.075,0.053-0.093,0.088c0.029-0.077-0.165-0.129-0.206-0.134
			C7.802,4.484,7.73,4.42,7.667,4.385C7.619,4.356,7.473,4.332,7.433,4.379C7.321,4.514,7.55,4.53,7.607,4.566
			c0.018,0.011,0.088,0.053,0.046,0.082C7.619,4.666,7.513,4.695,7.502,4.72C7.467,4.771,7.543,4.83,7.49,4.883
			C7.438,4.83,7.438,4.742,7.396,4.684c0.053,0.064-0.21,0.029-0.205,0.029c-0.088,0-0.229,0.059-0.293-0.029
			C6.887,4.66,6.887,4.525,6.923,4.555C6.869,4.514,6.834,4.473,6.8,4.449c-0.194,0.064-0.375,0.147-0.552,0.24
			C6.271,4.695,6.29,4.695,6.319,4.684c0.046-0.018,0.088-0.047,0.134-0.07C6.512,4.59,6.635,4.519,6.7,4.572
			c0.006-0.011,0.023-0.023,0.029-0.028C6.769,4.59,6.812,4.637,6.847,4.689C6.8,4.666,6.723,4.678,6.671,4.684
			C6.629,4.695,6.56,4.706,6.542,4.754C6.56,4.784,6.583,4.83,6.571,4.86C6.494,4.807,6.436,4.72,6.331,4.706
			c-0.046,0-0.094,0-0.129,0.006c-0.563,0.31-1.037,0.763-1.376,1.301c0.022,0.023,0.046,0.041,0.069,0.047
			c0.06,0.018,0,0.188,0.112,0.101C5.042,6.189,5.048,6.23,5.022,6.271c0.006-0.005,0.241,0.148,0.26,0.159
			c0.041,0.035,0.104,0.076,0.122,0.123C5.417,6.594,5.381,6.64,5.346,6.659C5.34,6.646,5.252,6.559,5.24,6.582
			c-0.017,0.03,0,0.188,0.065,0.182C5.211,6.769,5.252,7.133,5.229,7.203c0,0.006,0.011,0.006,0.011,0.006
			c-0.017,0.07,0.042,0.346,0.158,0.316C5.323,7.543,5.534,7.812,5.563,7.83c0.075,0.053,0.163,0.088,0.216,0.165
			C5.838,8.076,5.838,8.2,5.921,8.264C5.896,8.334,6.043,8.415,6.038,8.516C6.024,8.521,6.02,8.521,6.008,8.527
			c0.03,0.084,0.141,0.084,0.183,0.157c0.023,0.048,0,0.159,0.075,0.138c0.012-0.13-0.075-0.261-0.14-0.365
			C6.09,8.398,6.056,8.346,6.024,8.287C5.996,8.234,5.99,8.17,5.968,8.111c0.022,0.006,0.151,0.054,0.141,0.07
			C6.061,8.299,6.296,8.504,6.359,8.58c0.018,0.019,0.152,0.192,0.083,0.192c0.075,0,0.181,0.118,0.217,0.177
			C6.711,9.036,6.7,9.148,6.734,9.244c0.035,0.115,0.2,0.166,0.293,0.221C7.11,9.506,7.181,9.565,7.262,9.594
			C7.385,9.641,7.415,9.6,7.52,9.582C7.673,9.558,7.69,9.729,7.813,9.793c0.075,0.041,0.24,0.1,0.321,0.064
			C8.1,9.869,8.258,10.109,8.27,10.127c0.054,0.071,0.153,0.105,0.211,0.175c0.018-0.011,0.035-0.028,0.041-0.051
			c-0.023,0.063,0.09,0.188,0.146,0.174c0.064-0.013,0.082-0.14,0.082-0.187c-0.117,0.059-0.223,0.013-0.286-0.105
			C8.452,10.104,8.357,9.939,8.44,9.939c0.111,0,0.034-0.088,0.023-0.17C8.452,9.688,8.369,9.635,8.329,9.565
			C8.293,9.635,8.177,9.617,8.141,9.558c0,0.019-0.018,0.048-0.018,0.071c-0.029,0-0.058,0.006-0.087-0.006
			c0.011-0.07,0.017-0.158,0.035-0.234C8.1,9.283,8.293,9.079,8.042,9.09C7.954,9.096,7.919,9.131,7.889,9.207
			c-0.029,0.07-0.018,0.136-0.099,0.17C7.736,9.4,7.561,9.389,7.508,9.359C7.396,9.294,7.321,9.09,7.321,8.974
			c-0.006-0.158,0.075-0.302,0-0.446C7.355,8.498,7.391,8.44,7.433,8.41c0.034-0.023,0.075,0.018,0.093-0.051
			C7.508,8.346,7.485,8.323,7.479,8.323c0.088,0.04,0.251-0.06,0.328,0c0.047,0.035,0.1,0.046,0.129-0.014
			c0.005-0.018-0.042-0.086-0.018-0.134C7.937,8.275,8,8.292,8.088,8.229c0.035,0.035,0.129,0.023,0.194,0.058
			c0.064,0.042,0.075,0.106,0.152,0.018c0.046,0.071,0.053,0.071,0.07,0.142C8.521,8.51,8.558,8.672,8.615,8.704
			c0.123,0.073,0.095-0.13,0.084-0.2c-0.007-0.006-0.007-0.2-0.014-0.2C8.498,8.264,8.568,8.118,8.674,8.017
			c0.019-0.011,0.152-0.059,0.212-0.105c0.052-0.047,0.117-0.129,0.088-0.205c0.029,0,0.053-0.023,0.064-0.053
			C9.021,7.648,8.949,7.589,8.938,7.596C8.98,7.572,8.974,7.538,8.949,7.502c0.06-0.036,0.031-0.1,0.089-0.124
			C9.102,7.466,9.23,7.367,9.167,7.297C9.225,7.215,9.359,7.256,9.396,7.18c0.087,0.023,0.022-0.088,0.069-0.152
			c0.043-0.052,0.111-0.052,0.166-0.082c0,0.006,0.146-0.082,0.098-0.088c0.101,0.012,0.3-0.094,0.148-0.182
			c0.022-0.053-0.053-0.075-0.105-0.089c0.04-0.011,0.092,0.014,0.128-0.011C9.976,6.523,9.923,6.5,9.857,6.482
			c-0.081-0.024-0.187,0.029-0.252,0.07C9.561,6.587,9.53,6.652,9.471,6.665z M10.707,10.584c-0.034-0.035-0.1-0.023-0.145-0.047
			c-0.048-0.02-0.084-0.035-0.143-0.047c0.012-0.117-0.116-0.158-0.199-0.217c-0.075-0.059-0.123-0.125-0.234-0.1
			c-0.011,0.006-0.129,0.047-0.104,0.07c-0.075-0.064-0.11-0.101-0.211-0.129c-0.095-0.027-0.158-0.146-0.253-0.04
			c-0.047,0.046-0.022,0.118-0.047,0.163c-0.074-0.064,0.071-0.141,0.014-0.211c-0.072-0.082-0.193,0.054-0.253,0.088
			c-0.036,0.028-0.077,0.04-0.099,0.078c-0.03,0.039-0.043,0.092-0.065,0.133c-0.019-0.047-0.118-0.035-0.124-0.07
			c0.023,0.141,0.023,0.287,0.054,0.427c0.018,0.083,0,0.218-0.071,0.282C8.757,11.029,8.668,11.1,8.657,11.2
			c-0.013,0.069,0.007,0.134,0.069,0.151c0.006,0.088-0.094,0.152-0.088,0.246c0,0.006,0.006,0.064,0.012,0.094
			C9.455,11.551,10.169,11.15,10.707,10.584z"/>
	</g>
</g>
</svg>
