<?xml version="1.0" encoding="utf-8"?>
<!-- Generator: Adobe Illustrator 16.0.0, SVG Export Plug-In . SVG Version: 6.00 Build 0)  -->
<!DOCTYPE svg PUBLIC "-//W3C//DTD SVG 1.1//EN" "http://www.w3.org/Graphics/SVG/1.1/DTD/svg11.dtd">
<svg version="1.1" id="Layer_1" xmlns="http://www.w3.org/2000/svg" xmlns:xlink="http://www.w3.org/1999/xlink" x="0px" y="0px"
	 width="16px" height="16px" viewBox="0 0 16 16" enable-background="new 0 0 16 16" xml:space="preserve">
<g>
	<circle fill="#148ECE" cx="8" cy="8" r="8"/>
	<g opacity="0.9">
		<path fill="#FFFFFF" d="M12.667,10.6c0,0.276-0.226,0.5-0.501,0.5h-1.667C10.225,11.1,10,10.876,10,10.6V8.933
			c0-0.275,0.225-0.5,0.499-0.5h0.5v-1H8.333v1h0.5c0.276,0,0.5,0.224,0.5,0.5V10.6c0,0.276-0.226,0.5-0.5,0.5H7.167
			c-0.276,0-0.5-0.224-0.5-0.5V8.933c0-0.275,0.224-0.5,0.5-0.5h0.5v-1H5v1h0.5c0.275,0,0.5,0.224,0.5,0.5V10.6
			c0,0.276-0.225,0.5-0.5,0.5H3.833c-0.277,0-0.5-0.224-0.5-0.5V8.933c0-0.275,0.223-0.5,0.5-0.5h0.5v-1
			c0-0.364,0.302-0.666,0.667-0.666h2.667v-1h-0.5c-0.276,0-0.5-0.225-0.5-0.5V3.6c0-0.276,0.224-0.5,0.5-0.5h1.667
			c0.275,0,0.5,0.224,0.5,0.5v1.667c0,0.275-0.225,0.5-0.5,0.5h-0.5v1H11c0.364,0,0.667,0.302,0.667,0.666v1h0.5
			c0.274,0,0.501,0.224,0.501,0.5L12.667,10.6L12.667,10.6z"/>
	</g>
</g>
</svg>
