<?xml version="1.0" encoding="utf-8"?>
<!-- Generator: Adobe Illustrator 16.0.0, SVG Export Plug-In . SVG Version: 6.00 Build 0)  -->
<!DOCTYPE svg PUBLIC "-//W3C//DTD SVG 1.1//EN" "http://www.w3.org/Graphics/SVG/1.1/DTD/svg11.dtd">
<svg version="1.1" id="Layer_1" xmlns="http://www.w3.org/2000/svg" xmlns:xlink="http://www.w3.org/1999/xlink" x="0px" y="0px"
	 width="16px" height="16px" viewBox="0 0 16 16" enable-background="new 0 0 16 16" xml:space="preserve">
<g>
	<path fill="#212F3F" d="M12,12.222c0,0.369-0.298,0.667-0.666,0.667H4.667C4.298,12.889,4,12.591,4,12.222v-4
		c0-0.368,0.298-0.667,0.667-0.667h0.222V6.222c0-1.708,1.403-3.111,3.111-3.111c1.709,0,3.111,1.403,3.111,3.111v1.333h0.223
		C11.702,7.556,12,7.854,12,8.222V12.222z M9.779,7.556V6.222c0-0.979-0.801-1.778-1.779-1.778c-0.979,0-1.778,0.799-1.778,1.778
		v1.333H9.779z"/>
</g>
</svg>
