<?xml version="1.0" encoding="utf-8"?>
<!-- Generator: Adobe Illustrator 16.0.0, SVG Export Plug-In . SVG Version: 6.00 Build 0)  -->
<!DOCTYPE svg PUBLIC "-//W3C//DTD SVG 1.1//EN" "http://www.w3.org/Graphics/SVG/1.1/DTD/svg11.dtd">
<svg version="1.1" id="Layer_1" xmlns="http://www.w3.org/2000/svg" xmlns:xlink="http://www.w3.org/1999/xlink" x="0px" y="0px"
	 width="16px" height="16px" viewBox="0 0 16 16" enable-background="new 0 0 16 16" xml:space="preserve">
<g>
	<circle fill="#148ECE" cx="8" cy="8" r="8"/>
	<g opacity="0.9">
		<path fill="#FFFFFF" d="M12.355,7.339c-0.318,1.546-1.313,2.551-2.695,3.236c-0.671,0.338-1.421,0.537-2.177,0.537
			c-0.477,0-0.969-0.079-1.422-0.233c-0.239-0.08-0.716-0.394-0.915-0.394c-0.249,0-0.547,1.015-0.979,1.015
			c-0.313,0-0.408-0.154-0.542-0.383c-0.045-0.084-0.08-0.114-0.08-0.219c0-0.518,0.984-0.92,0.984-1.209
			c0-0.044-0.129-0.307-0.149-0.406c-0.03-0.17-0.045-0.344-0.045-0.518c0-1.58,1.258-2.709,2.67-3.177
			c1.019-0.339,3.188,0.055,3.877-0.602C11.157,4.733,11.291,4.5,11.709,4.5c0.562,0,0.745,1.457,0.745,1.879
			C12.454,6.697,12.42,7.021,12.355,7.339z M9.591,7.045c-1.76,0-2.894,0.736-4.042,2.004c-0.06,0.064-0.094,0.135-0.094,0.225
			c0,0.174,0.144,0.317,0.318,0.317c0.09,0,0.159-0.034,0.224-0.095C6.24,9.277,6.458,9.039,6.697,8.814
			c0.9-0.81,1.67-1.133,2.894-1.133c0.175,0,0.318-0.145,0.318-0.318S9.766,7.045,9.591,7.045z"/>
	</g>
</g>
</svg>
