<?xml version="1.0" encoding="UTF-8"?>
<svg width="48px" height="48px" viewBox="0 0 48 48" version="1.1" xmlns="http://www.w3.org/2000/svg" xmlns:xlink="http://www.w3.org/1999/xlink">
    <!-- Generator: Sketch 41.2 (35397) - http://www.bohemiancoding.com/sketch -->
    <title>in_2</title>
    <desc>Created with Sketch.</desc>
    <defs></defs>
    <g id="Page-1" stroke="none" stroke-width="1" fill="none" fill-rule="evenodd">
        <g id="in_2" fill="#148ECE">
            <path d="M19,10 C19,10.5833363 18.8030323,11.0624981 18.4090909,11.4375 C18.0151495,11.8125019 17.5454573,12 17,12 C16.4242395,12 15.9469716,11.8125019 15.5681818,11.4375 C15.189392,11.0624981 15,10.5833363 15,10 C15,9.44444167 15.189392,8.97222417 15.5681818,8.58333333 C15.9469716,8.1944425 16.4242395,8 17,8 C17.5757605,8 18.0530284,8.1944425 18.4318182,8.58333333 C18.810608,8.97222417 19,9.44444167 19,10 Z M15.5,37 L15.5,15 L18.5,15 L18.5,37 L15.5,37 Z M37.6386619,37 L37.6386619,23.8912906 C37.6386619,22.8616999 37.5848791,21.5373435 37.014748,20.092203 C36.3908342,18.7456909 36.0196439,18.4491397 35.5227143,18.04839 C35.0257848,17.6476404 34.3765801,17.4472686 33.5750808,17.4472686 C32.7735815,17.4472686 32.0602578,17.6636701 31.4350884,18.0964798 C30.8099189,18.5292894 30.2809373,19.1223899 29.8481277,19.8757993 C29.4153181,20.6292086 29.0786935,21.4948149 28.8382437,22.472644 C28.5977939,23.4504731 28.4775708,24.4683619 28.4775708,25.526341 L28.4775708,37 L25.5,37 L25.3036495,21.4387151 C25.3036495,20.9257555 25.2956346,20.3727293 25.2796046,19.7796198 C25.2635747,19.1865104 25.2475449,18.6094395 25.2315149,18.04839 C25.2154849,17.4873405 25.1994552,16.9743887 25.1834252,16.5095191 C25.1673952,16.0446495 25.0989816,15.277223 25.0669216,15.0207433 L28.1446635,15.0207433 C28.2087834,15.6298827 28.3012417,16.7740082 28.3333017,17.6396274 C28.3653616,18.5052467 28.3813914,19.3227637 28.3813914,20.092203 L28.4775708,20.092203 C28.9264104,18.4892044 29.6637787,17.1827802 30.6896978,16.1728911 C31.7156169,15.163002 32.9979965,14.658065 34.5368751,14.658065 C35.819274,14.658065 36.8531925,14.9305707 37.6386619,15.4755902 C38.4241312,16.0206097 39.0252466,16.7339334 39.4420262,17.6155826 C39.8588059,18.4972318 40.1393264,19.491076 40.2835963,20.597145 C40.4278661,21.703214 40.5,22.8012516 40.5,23.8912906 L40.5,37 L37.6386619,37 Z"></path>
        </g>
    </g>
</svg>