<?xml version="1.0" encoding="UTF-8"?>
<svg width="100px" height="100px" viewBox="0 0 100 100" version="1.1" xmlns="http://www.w3.org/2000/svg" xmlns:xlink="http://www.w3.org/1999/xlink">
    <!-- Generator: Sketch 42 (36781) - http://www.bohemiancoding.com/sketch -->
    <title>iv-03</title>
    <desc>Created with Sketch.</desc>
    <defs></defs>
    <g id="Page-1" stroke="none" stroke-width="1" fill="none" fill-rule="evenodd" stroke-linecap="round" stroke-linejoin="round">
        <g id="Icons" transform="translate(-781.000000, -435.000000)" stroke-width="2" stroke="#0000DD">
            <g id="iv-03" transform="translate(798.000000, 445.000000)">
                <g id="Layer_1">
                    <path d="M65.207,28.598 L65.207,75.632 C65.207,77.992 63.292,79.908 60.932,79.908 L5.068,79.908 C2.708,79.908 0.793,77.992 0.793,75.632 L0.793,4.367 C0.793,2.006 2.708,0.092 5.068,0.092 L36.701,0.092 M63.426,22.896 L42.402,22.896 L42.402,1.873 L63.426,22.896 Z M35.104,37.725 C35.104,36.922 34.481,36.299 33.678,36.299 L18.322,36.299 C17.52,36.299 16.896,36.922 16.896,37.725 L16.896,40.576 C16.896,41.378 17.52,42.002 18.322,42.002 L33.677,42.002 C34.479,42.002 35.104,41.378 35.104,40.576 L35.104,37.725 L35.104,37.725 Z M49.104,50.126 C49.104,49.324 48.481,48.701 47.678,48.701 L18.322,48.701 C17.52,48.701 16.896,49.324 16.896,50.126 L16.896,52.977 C16.896,53.782 17.52,54.403 18.322,54.403 L47.677,54.403 C48.479,54.403 49.104,53.782 49.104,52.977 L49.104,50.126 L49.104,50.126 Z M49.104,62.527 C49.104,61.726 48.481,61.103 47.678,61.103 L18.322,61.103 C17.52,61.103 16.896,61.726 16.896,62.527 L16.896,65.379 C16.896,66.182 17.52,66.805 18.322,66.805 L47.677,66.805 C48.479,66.805 49.104,66.182 49.104,65.379 L49.104,62.527 L49.104,62.527 Z" id="Shape"></path>
                </g>
            </g>
        </g>
    </g>
</svg>