<?xml version="1.0" encoding="UTF-8"?>
<svg width="447px" height="60px" viewBox="0 0 447 60" version="1.1" xmlns="http://www.w3.org/2000/svg" xmlns:xlink="http://www.w3.org/1999/xlink">
    <!-- Generator: Sketch 51.3 (57544) - http://www.bohemiancoding.com/sketch -->
    <title>dsp_l</title>
    <desc>Created with Sketch.</desc>
    <defs></defs>
    <g id="Page-1" stroke="none" stroke-width="1" fill="none" fill-rule="evenodd">
        <g id="statusbar" transform="translate(-14.000000, 0.000000)" fill="#FFFFFF">
            <g id="dsp_l" transform="translate(14.000000, 0.000000)">
                <g id="T" transform="translate(0.000000, 12.000000)">
                    <polygon id="Fill-4" points="23.5049306 6.7281244 23.5049306 20.5051896 25.6146528 20.5051896 27.7227546 20.5051896 27.7227546 6.7281244 32.7799306 10.1752017 36.4144213 7.77060024 25.6146528 0.633897343 14.8132639 7.77060024 18.449375 10.1752017"></polygon>
                    <polygon id="Fill-7" points="41.0749306 10.8488756 37.4371991 13.2534771 44.0499306 17.5647331 25.6133565 29.4945761 7.17840278 17.5647331 13.7911343 13.2534771 10.1534028 10.8488756 0.000162037037 17.5631268 25.6133565 34.4901075 51.2281713 17.5631268"></polygon>
                </g>
                <path d="M68.664,27.42 C69.3733369,27.4453335 70.0826631,27.3946673 70.792,27.268 C71.5013369,27.1413327 72.1346639,26.9196683 72.692,26.603 C73.2493361,26.2863318 73.6989983,25.8493361 74.041,25.292 C74.3830017,24.7346639 74.554,24.0506707 74.554,23.24 C74.554,22.0999943 74.1676705,21.1880034 73.395,20.504 C72.6223295,19.8199966 71.6280061,19.478 70.412,19.478 C69.6519962,19.478 68.9933361,19.6299985 68.436,19.934 C67.8786639,20.2380015 67.4163352,20.6496641 67.049,21.169 C66.6816648,21.6883359 66.4093342,22.2709968 66.232,22.917 C66.0546658,23.5630032 65.9786665,24.2279966 66.004,24.912 L61.672,24.912 C61.7226669,23.6199935 61.9633312,22.4230055 62.394,21.321 C62.8246688,20.2189945 63.4136629,19.2626707 64.161,18.452 C64.9083371,17.6413293 65.8139947,17.0080023 66.878,16.552 C67.9420053,16.0959977 69.1453266,15.868 70.488,15.868 C71.5266719,15.868 72.5463283,16.0199985 73.547,16.324 C74.5476717,16.6280015 75.446996,17.0713304 76.245,17.654 C77.043004,18.2366696 77.6826643,18.9776622 78.164,19.877 C78.6453357,20.7763378 78.886,21.8086608 78.886,22.974 C78.886,24.3166734 78.582003,25.4883283 77.974,26.489 C77.365997,27.4896717 76.4160065,28.2179977 75.124,28.674 L75.124,28.75 C76.6440076,29.0540015 77.8283291,29.8076607 78.677,31.011 C79.5256709,32.2143394 79.95,33.6773247 79.95,35.4 C79.95,36.666673 79.6966692,37.8003283 79.19,38.801 C78.6833308,39.8016717 77.9993376,40.6503298 77.138,41.347 C76.2766624,42.0436701 75.2760057,42.5819981 74.136,42.962 C72.9959943,43.3420019 71.792673,43.532 70.526,43.532 C68.9806589,43.532 67.6316724,43.3103355 66.479,42.867 C65.3263276,42.4236645 64.3636705,41.7966707 63.591,40.986 C62.8183295,40.1753293 62.2293354,39.2000057 61.824,38.06 C61.4186646,36.9199943 61.2033335,35.6533403 61.178,34.26 L65.51,34.26 C65.4593331,35.8813414 65.8583291,37.230328 66.707,38.307 C67.5556709,39.3836721 68.8286582,39.922 70.526,39.922 C71.9700072,39.922 73.1796618,39.5103375 74.155,38.687 C75.1303382,37.8636626 75.618,36.6920076 75.618,35.172 C75.618,34.1333281 75.4153354,33.310003 75.01,32.702 C74.6046646,32.093997 74.07267,31.6316682 73.414,31.315 C72.75533,30.9983317 72.0143374,30.8020004 71.191,30.726 C70.3676626,30.6499996 69.5253376,30.6246665 68.664,30.65 L68.664,27.42 Z M96.7239999,31.524 C96.7239999,31.1439981 96.7999991,30.789335 96.9519999,30.46 C97.1040007,30.130665 97.3129986,29.8330013 97.5789999,29.567 C97.8450012,29.3009987 98.1489982,29.0920008 98.4909999,28.94 C98.8330016,28.7879992 99.193998,28.712 99.5739999,28.712 C99.9540018,28.712 100.314998,28.7879992 100.657,28.94 C100.999002,29.0920008 101.302999,29.3009987 101.569,29.567 C101.835001,29.8330013 102.043999,30.130665 102.196,30.46 C102.348001,30.789335 102.424,31.1439981 102.424,31.524 C102.424,32.2840038 102.145336,32.9553304 101.588,33.538 C101.030664,34.1206696 100.359337,34.412 99.5739999,34.412 C98.7886626,34.412 98.117336,34.1206696 97.5599999,33.538 C97.0026638,32.9553304 96.7239999,32.2840038 96.7239999,31.524 Z M120.908,15.868 L125.658,15.868 L125.658,28.218 L137.742,15.868 L143.594,15.868 L132.764,26.698 L144.354,43 L138.426,43 L129.534,30.042 L125.658,33.88 L125.658,43 L120.908,43 L120.908,15.868 Z M147.744,15.868 L152.076,15.868 L152.076,19.972 L147.744,19.972 L147.744,15.868 Z M147.744,23.354 L152.076,23.354 L152.076,43 L147.744,43 L147.744,23.354 Z M157.48,39.884 C158.13867,39.884 158.765663,39.6560023 159.361,39.2 C159.956336,38.7439977 160.380665,38.0853376 160.634,37.224 C160.786,36.7426643 160.906333,36.267669 160.995,35.799 C161.083667,35.330331 161.159666,34.8300027 161.223,34.298 C161.286333,33.7659973 161.330666,33.17067 161.356,32.512 C161.381333,31.85333 161.406666,31.0933376 161.432,30.232 C161.457333,29.3706624 161.476333,28.3890055 161.489,27.287 C161.501666,26.1849945 161.508,24.8740076 161.508,23.354 L177.81,23.354 L177.81,43 L173.478,43 L173.478,26.584 L165.916,26.584 C165.916,28.2306749 165.897,29.6809937 165.859,30.935 C165.821,32.1890063 165.770333,33.2973285 165.707,34.26 C165.643666,35.2226715 165.561334,36.0649964 165.46,36.787 C165.358666,37.5090036 165.219334,38.1486639 165.042,38.706 C164.864665,39.3393365 164.643001,39.9283306 164.377,40.473 C164.110998,41.0176694 163.718336,41.4863314 163.199,41.879 C162.679664,42.2716686 161.983004,42.5819989 161.109,42.81 C160.234995,43.0380011 159.088673,43.152 157.67,43.152 C157.264664,43.152 156.922668,43.1456667 156.644,43.133 C156.365332,43.1203333 156.086668,43.0886669 155.808,43.038 L155.808,39.77 C156.086668,39.8206669 156.333665,39.8523333 156.549,39.865 C156.764334,39.8776667 157.074664,39.884 157.48,39.884 Z M188.268,39.77 L193.854,39.77 C194.614003,39.77 195.272664,39.5420023 195.83,39.086 C196.387336,38.6299977 196.666,37.8953384 196.666,36.882 C196.666,35.8686616 196.387336,35.1720019 195.83,34.792 C195.272664,34.4119981 194.614003,34.222 193.854,34.222 L188.268,34.222 L188.268,39.77 Z M183.936,23.354 L188.268,23.354 L188.268,30.878 L194.044,30.878 C195.51334,30.878 196.697662,31.0806646 197.597,31.486 C198.496337,31.8913354 199.19933,32.3916637 199.706,32.987 C200.212669,33.5823363 200.554665,34.2346631 200.732,34.944 C200.909334,35.6533369 200.998,36.311997 200.998,36.92 C200.998,37.528003 200.909334,38.1866631 200.732,38.896 C200.554665,39.6053369 200.212669,40.263997 199.706,40.872 C199.19933,41.480003 198.496337,41.9866646 197.597,42.392 C196.697662,42.7973354 195.51334,43 194.044,43 L183.936,43 L183.936,23.354 Z M205.946,23.354 L210.278,23.354 L210.278,39.77 L220.044,39.77 L220.044,23.354 L224.376,23.354 L224.376,39.77 L227.872,39.77 L227.872,48.966 L223.882,48.966 L223.882,43 L205.946,43 L205.946,23.354 Z M245.322,31.448 C245.271333,30.7639966 245.125667,30.1053365 244.885,29.472 C244.644332,28.8386635 244.315002,28.287669 243.897,27.819 C243.478997,27.350331 242.972336,26.9703348 242.377,26.679 C241.781663,26.3876652 241.11667,26.242 240.382,26.242 C239.621996,26.242 238.931669,26.3749987 238.311,26.641 C237.69033,26.9070013 237.158335,27.274331 236.715,27.743 C236.271664,28.211669 235.917001,28.7626635 235.651,29.396 C235.384998,30.0293365 235.239333,30.7133297 235.214,31.448 L245.322,31.448 Z M235.214,34.298 C235.214,35.0580038 235.321665,35.7926631 235.537,36.502 C235.752334,37.2113369 236.075331,37.8319973 236.506,38.364 C236.936668,38.8960027 237.48133,39.3203318 238.14,39.637 C238.79867,39.9536682 239.583995,40.112 240.496,40.112 C241.762673,40.112 242.782329,39.8396694 243.555,39.295 C244.32767,38.7503306 244.903998,37.9333388 245.284,36.844 L249.388,36.844 C249.159998,37.9080053 248.767336,38.8579958 248.21,39.694 C247.652663,40.5300042 246.981337,41.2329972 246.196,41.803 C245.410662,42.3730028 244.530338,42.8036652 243.555,43.095 C242.579661,43.3863348 241.560005,43.532 240.496,43.532 C238.950659,43.532 237.582672,43.2786692 236.392,42.772 C235.201327,42.2653308 234.194337,41.5560046 233.371,40.644 C232.547662,39.7319954 231.927002,38.642673 231.509,37.376 C231.090997,36.109327 230.882,34.7160076 230.882,33.196 C230.882,31.8026597 231.103664,30.4790063 231.547,29.225 C231.990335,27.9709937 232.623662,26.8690048 233.447,25.919 C234.270337,24.9689952 235.26466,24.2153361 236.43,23.658 C237.595339,23.1006639 238.912659,22.822 240.382,22.822 C241.927341,22.822 243.314327,23.1449968 244.543,23.791 C245.771672,24.4370032 246.791329,25.2919947 247.602,26.356 C248.41267,27.4200053 249.001664,28.6423264 249.369,30.023 C249.736335,31.4036736 249.831334,32.8286593 249.654,34.298 L235.214,34.298 Z M258.706,31.372 L263.342,31.372 C264.178004,31.372 264.86833,31.1630021 265.413,30.745 C265.957669,30.3269979 266.23,29.7380038 266.23,28.978 C266.23,28.0913289 265.983002,27.4706684 265.489,27.116 C264.994997,26.7613316 264.279338,26.584 263.342,26.584 L258.706,26.584 L258.706,31.372 Z M254.374,23.354 L264.71,23.354 C266.483342,23.354 267.901994,23.752996 268.966,24.551 C270.030005,25.349004 270.562,26.5713251 270.562,28.218 C270.562,29.2060049 270.315002,30.0546631 269.821,30.764 C269.326997,31.4733369 268.636671,32.0179981 267.75,32.398 L267.75,32.474 C268.966006,32.7273346 269.88433,33.2973289 270.505,34.184 C271.125669,35.0706711 271.436,36.1853266 271.436,37.528 C271.436,38.2880038 271.296668,39.0036633 271.018,39.675 C270.739331,40.3463367 270.308669,40.9289975 269.726,41.423 C269.14333,41.9170025 268.396004,42.3033319 267.484,42.582 C266.571995,42.8606681 265.482673,43 264.216,43 L254.374,43 L254.374,23.354 Z M258.706,39.77 L263.836,39.77 C264.900005,39.77 265.710663,39.5230025 266.268,39.029 C266.825336,38.5349975 267.104,37.8446711 267.104,36.958 C267.104,36.0713289 266.825336,35.393669 266.268,34.925 C265.710663,34.456331 264.900005,34.222 263.836,34.222 L258.706,34.222 L258.706,39.77 Z M292.837999,38.63 C292.837999,39.1620027 292.907665,39.5419989 293.046999,39.77 C293.186334,39.9980011 293.458664,40.112 293.863999,40.112 L294.319999,40.112 C294.497334,40.112 294.699998,40.0866669 294.927999,40.036 L294.927999,43.038 C294.775999,43.0886669 294.579667,43.1456663 294.338999,43.209 C294.098332,43.2723337 293.851334,43.3293331 293.597999,43.38 C293.344665,43.4306669 293.091334,43.4686665 292.837999,43.494 C292.584665,43.5193335 292.369334,43.532 292.191999,43.532 C291.305328,43.532 290.570669,43.3546684 289.987999,43 C289.40533,42.6453316 289.025334,42.0246711 288.847999,41.138 C287.986662,41.9740042 286.929006,42.5819981 285.674999,42.962 C284.420993,43.3420019 283.211339,43.532 282.045999,43.532 C281.159328,43.532 280.31067,43.4116679 279.499999,43.171 C278.689329,42.9303321 277.973669,42.575669 277.352999,42.107 C276.73233,41.638331 276.238335,41.0430036 275.870999,40.321 C275.503664,39.5989964 275.319999,38.7566715 275.319999,37.794 C275.319999,36.5779939 275.541664,35.5900038 275.984999,34.83 C276.428335,34.0699962 277.010996,33.4746688 277.732999,33.044 C278.455003,32.6133312 279.265662,32.3030009 280.164999,32.113 C281.064337,31.9229991 281.969995,31.7773338 282.881999,31.676 C283.667337,31.5239992 284.414663,31.4163337 285.123999,31.353 C285.833336,31.2896664 286.46033,31.1820008 287.004999,31.03 C287.549669,30.8779992 287.980331,30.6436682 288.296999,30.327 C288.613668,30.0103317 288.771999,29.5353365 288.771999,28.902 C288.771999,28.3446639 288.639001,27.8886684 288.372999,27.534 C288.106998,27.1793316 287.777668,26.907001 287.384999,26.717 C286.992331,26.5269991 286.555335,26.4003337 286.073999,26.337 C285.592664,26.2736663 285.136668,26.242 284.705999,26.242 C283.489993,26.242 282.489337,26.4953308 281.703999,27.002 C280.918662,27.5086692 280.475333,28.2939947 280.373999,29.358 L276.041999,29.358 C276.118,28.091327 276.421997,27.0400042 276.953999,26.204 C277.486002,25.3679958 278.163662,24.6966692 278.986999,24.19 C279.810337,23.6833308 280.741328,23.3286677 281.779999,23.126 C282.818671,22.9233323 283.882661,22.822 284.971999,22.822 C285.934671,22.822 286.884661,22.9233323 287.821999,23.126 C288.759337,23.3286677 289.601662,23.6579977 290.348999,24.114 C291.096337,24.5700023 291.697997,25.1589964 292.153999,25.881 C292.610002,26.6030036 292.837999,27.4833281 292.837999,28.522 L292.837999,38.63 Z M288.505999,33.158 C287.84733,33.5886688 287.036671,33.8483329 286.073999,33.937 C285.111328,34.0256671 284.148671,34.1586658 283.185999,34.336 C282.729997,34.4120004 282.286668,34.519666 281.855999,34.659 C281.425331,34.798334 281.045334,34.9883321 280.715999,35.229 C280.386664,35.4696679 280.127,35.7863314 279.936999,36.179 C279.746999,36.5716686 279.651999,37.0466639 279.651999,37.604 C279.651999,38.0853357 279.791331,38.490665 280.069999,38.82 C280.348668,39.149335 280.684331,39.408999 281.076999,39.599 C281.469668,39.789001 281.90033,39.9219996 282.368999,39.998 C282.837668,40.0740004 283.261998,40.112 283.641999,40.112 C284.123335,40.112 284.642663,40.0486673 285.199999,39.922 C285.757336,39.7953327 286.282997,39.5800015 286.776999,39.276 C287.271002,38.9719985 287.682664,38.585669 288.011999,38.117 C288.341334,37.648331 288.505999,37.0720034 288.505999,36.388 L288.505999,33.158 Z M312.765999,48.966 L308.775999,48.966 L308.775999,39.77 L311.245999,39.77 C311.626001,39.6686662 311.980664,39.4786681 312.309999,39.2 C312.918002,38.7439977 313.348665,38.0853376 313.601999,37.224 C313.754,36.7426643 313.874332,36.267669 313.962999,35.799 C314.051666,35.330331 314.127666,34.8300027 314.190999,34.298 C314.254333,33.7659973 314.298666,33.17067 314.323999,32.512 C314.349333,31.85333 314.374666,31.0933376 314.399999,30.232 C314.425333,29.3706624 314.444333,28.3890055 314.456999,27.287 C314.469666,26.1849945 314.475999,24.8740076 314.475999,23.354 L330.777999,23.354 L330.777999,39.77 L334.273999,39.77 L334.273999,48.966 L330.283999,48.966 L330.283999,43 L312.765999,43 L312.765999,48.966 Z M326.445999,26.584 L318.845999,26.584 C318.845999,28.2306749 318.833333,29.6809937 318.807999,30.935 C318.782666,32.1890063 318.738333,33.2973285 318.674999,34.26 C318.611666,35.2226715 318.529333,36.0649964 318.427999,36.787 C318.326666,37.5090036 318.187334,38.1486639 318.009999,38.706 C317.908666,39.0860019 317.794667,39.440665 317.667999,39.77 L326.445999,39.77 L326.445999,26.584 Z M347.239999,43.532 C345.669325,43.532 344.269672,43.2723359 343.040999,42.753 C341.812327,42.2336641 340.77367,41.5180046 339.924999,40.606 C339.076328,39.6939954 338.430335,38.604673 337.986999,37.338 C337.543664,36.071327 337.321999,34.6780076 337.321999,33.158 C337.321999,31.6633259 337.543664,30.282673 337.986999,29.016 C338.430335,27.749327 339.076328,26.6600046 339.924999,25.748 C340.77367,24.8359954 341.812327,24.1203359 343.040999,23.601 C344.269672,23.0816641 345.669325,22.822 347.239999,22.822 C348.810674,22.822 350.210327,23.0816641 351.438999,23.601 C352.667672,24.1203359 353.706328,24.8359954 354.554999,25.748 C355.40367,26.6600046 356.049664,27.749327 356.492999,29.016 C356.936335,30.282673 357.157999,31.6633259 357.157999,33.158 C357.157999,34.6780076 356.936335,36.071327 356.492999,37.338 C356.049664,38.604673 355.40367,39.6939954 354.554999,40.606 C353.706328,41.5180046 352.667672,42.2336641 351.438999,42.753 C350.210327,43.2723359 348.810674,43.532 347.239999,43.532 Z M347.239999,40.112 C348.202671,40.112 349.038662,39.9093354 349.747999,39.504 C350.457336,39.0986646 351.039997,38.56667 351.495999,37.908 C351.952002,37.24933 352.287665,36.5083374 352.502999,35.685 C352.718334,34.8616626 352.825999,34.0193376 352.825999,33.158 C352.825999,32.3219958 352.718334,31.4860042 352.502999,30.65 C352.287665,29.8139958 351.952002,29.0730032 351.495999,28.427 C351.039997,27.7809968 350.457336,27.2553354 349.747999,26.85 C349.038662,26.4446646 348.202671,26.242 347.239999,26.242 C346.277328,26.242 345.441336,26.4446646 344.731999,26.85 C344.022662,27.2553354 343.440002,27.7809968 342.983999,28.427 C342.527997,29.0730032 342.192334,29.8139958 341.976999,30.65 C341.761665,31.4860042 341.653999,32.3219958 341.653999,33.158 C341.653999,34.0193376 341.761665,34.8616626 341.976999,35.685 C342.192334,36.5083374 342.527997,37.24933 342.983999,37.908 C343.440002,38.56667 344.022662,39.0986646 344.731999,39.504 C345.441336,39.9093354 346.277328,40.112 347.239999,40.112 Z M362.181999,23.354 L366.285999,23.354 L366.285999,26.014 L366.361999,26.014 C366.970002,24.8739943 367.818661,24.0570025 368.907999,23.563 C369.997338,23.0689975 371.175326,22.822 372.441999,22.822 C373.98734,22.822 375.336327,23.0943306 376.488999,23.639 C377.641672,24.1836694 378.597995,24.9309952 379.357999,25.881 C380.118003,26.8310047 380.687997,27.939327 381.067999,29.206 C381.448001,30.472673 381.637999,31.8279928 381.637999,33.272 C381.637999,34.5893399 381.467001,35.8686605 381.124999,37.11 C380.782998,38.3513395 380.263669,39.4469953 379.566999,40.397 C378.870329,41.3470047 377.990005,42.1069971 376.925999,42.677 C375.861994,43.2470029 374.608007,43.532 373.163999,43.532 C372.530663,43.532 371.897336,43.4750006 371.263999,43.361 C370.630663,43.2469994 370.022669,43.0633346 369.439999,42.81 C368.85733,42.5566654 368.319002,42.2336686 367.824999,41.841 C367.330997,41.4483314 366.919334,40.9860027 366.589999,40.454 L366.513999,40.454 L366.513999,50.258 L362.181999,50.258 L362.181999,23.354 Z M377.305999,33.196 C377.305999,32.3093289 377.192,31.4480042 376.963999,30.612 C376.735998,29.7759958 376.394002,29.0350032 375.937999,28.389 C375.481997,27.7429968 374.912003,27.2236686 374.227999,26.831 C373.543996,26.4383314 372.75867,26.242 371.871999,26.242 C370.04799,26.242 368.673671,26.875327 367.748999,28.142 C366.824328,29.408673 366.361999,31.0933228 366.361999,33.196 C366.361999,34.1840049 366.482331,35.1023291 366.722999,35.951 C366.963667,36.7996709 367.324664,37.527997 367.805999,38.136 C368.287335,38.744003 368.863663,39.2253316 369.534999,39.58 C370.206336,39.9346684 370.985328,40.112 371.871999,40.112 C372.860004,40.112 373.695996,39.9093354 374.379999,39.504 C375.064003,39.0986646 375.627664,38.5730032 376.070999,37.927 C376.514335,37.2809968 376.830998,36.5463374 377.020999,35.723 C377.211,34.8996626 377.305999,34.0573376 377.305999,33.196 Z M395.591999,43.532 C394.021325,43.532 392.621672,43.2723359 391.392999,42.753 C390.164326,42.2336641 389.12567,41.5180046 388.276999,40.606 C387.428328,39.6939954 386.782335,38.604673 386.338999,37.338 C385.895664,36.071327 385.673999,34.6780076 385.673999,33.158 C385.673999,31.6633259 385.895664,30.282673 386.338999,29.016 C386.782335,27.749327 387.428328,26.6600046 388.276999,25.748 C389.12567,24.8359954 390.164326,24.1203359 391.392999,23.601 C392.621672,23.0816641 394.021325,22.822 395.591999,22.822 C397.162674,22.822 398.562326,23.0816641 399.790999,23.601 C401.019672,24.1203359 402.058328,24.8359954 402.906999,25.748 C403.75567,26.6600046 404.401664,27.749327 404.844999,29.016 C405.288335,30.282673 405.509999,31.6633259 405.509999,33.158 C405.509999,34.6780076 405.288335,36.071327 404.844999,37.338 C404.401664,38.604673 403.75567,39.6939954 402.906999,40.606 C402.058328,41.5180046 401.019672,42.2336641 399.790999,42.753 C398.562326,43.2723359 397.162674,43.532 395.591999,43.532 Z M395.591999,40.112 C396.554671,40.112 397.390662,39.9093354 398.099999,39.504 C398.809336,39.0986646 399.391997,38.56667 399.847999,37.908 C400.304002,37.24933 400.639665,36.5083374 400.854999,35.685 C401.070334,34.8616626 401.177999,34.0193376 401.177999,33.158 C401.177999,32.3219958 401.070334,31.4860042 400.854999,30.65 C400.639665,29.8139958 400.304002,29.0730032 399.847999,28.427 C399.391997,27.7809968 398.809336,27.2553354 398.099999,26.85 C397.390662,26.4446646 396.554671,26.242 395.591999,26.242 C394.629328,26.242 393.793336,26.4446646 393.083999,26.85 C392.374662,27.2553354 391.792002,27.7809968 391.335999,28.427 C390.879997,29.0730032 390.544334,29.8139958 390.328999,30.65 C390.113665,31.4860042 390.005999,32.3219958 390.005999,33.158 C390.005999,34.0193376 390.113665,34.8616626 390.328999,35.685 C390.544334,36.5083374 390.879997,37.24933 391.335999,37.908 C391.792002,38.56667 392.374662,39.0986646 393.083999,39.504 C393.793336,39.9093354 394.629328,40.112 395.591999,40.112 Z M410.533999,23.354 L423.871999,23.354 L423.871999,26.584 L414.865999,26.584 L414.865999,43 L410.533999,43 L410.533999,23.354 Z M444.247999,38.63 C444.247999,39.1620027 444.317665,39.5419989 444.456999,39.77 C444.596333,39.9980011 444.868664,40.112 445.273999,40.112 L445.729999,40.112 C445.907333,40.112 446.109998,40.0866669 446.337999,40.036 L446.337999,43.038 C446.185998,43.0886669 445.989667,43.1456663 445.748999,43.209 C445.508331,43.2723337 445.261334,43.3293331 445.007999,43.38 C444.754665,43.4306669 444.501334,43.4686665 444.247999,43.494 C443.994665,43.5193335 443.779333,43.532 443.601999,43.532 C442.715328,43.532 441.980669,43.3546684 441.397999,43 C440.81533,42.6453316 440.435333,42.0246711 440.257999,41.138 C439.396662,41.9740042 438.339005,42.5819981 437.084999,42.962 C435.830993,43.3420019 434.621338,43.532 433.455999,43.532 C432.569328,43.532 431.72067,43.4116679 430.909999,43.171 C430.099328,42.9303321 429.383669,42.575669 428.762999,42.107 C428.142329,41.638331 427.648334,41.0430036 427.280999,40.321 C426.913664,39.5989964 426.729999,38.7566715 426.729999,37.794 C426.729999,36.5779939 426.951664,35.5900038 427.394999,34.83 C427.838335,34.0699962 428.420996,33.4746688 429.142999,33.044 C429.865003,32.6133312 430.675661,32.3030009 431.574999,32.113 C432.474337,31.9229991 433.379995,31.7773338 434.291999,31.676 C435.077336,31.5239992 435.824662,31.4163337 436.533999,31.353 C437.243336,31.2896664 437.87033,31.1820008 438.414999,31.03 C438.959669,30.8779992 439.390331,30.6436682 439.706999,30.327 C440.023667,30.0103317 440.181999,29.5353365 440.181999,28.902 C440.181999,28.3446639 440.049,27.8886684 439.782999,27.534 C439.516998,27.1793316 439.187668,26.907001 438.794999,26.717 C438.402331,26.5269991 437.965335,26.4003337 437.483999,26.337 C437.002663,26.2736663 436.546668,26.242 436.115999,26.242 C434.899993,26.242 433.899336,26.4953308 433.113999,27.002 C432.328662,27.5086692 431.885333,28.2939947 431.783999,29.358 L427.451999,29.358 C427.528,28.091327 427.831996,27.0400042 428.363999,26.204 C428.896002,25.3679958 429.573662,24.6966692 430.396999,24.19 C431.220337,23.6833308 432.151327,23.3286677 433.189999,23.126 C434.228671,22.9233323 435.29266,22.822 436.381999,22.822 C437.344671,22.822 438.294661,22.9233323 439.231999,23.126 C440.169337,23.3286677 441.011662,23.6579977 441.758999,24.114 C442.506336,24.5700023 443.107997,25.1589964 443.563999,25.881 C444.020001,26.6030036 444.247999,27.4833281 444.247999,28.522 L444.247999,38.63 Z M439.915999,33.158 C439.257329,33.5886688 438.446671,33.8483329 437.483999,33.937 C436.521328,34.0256671 435.558671,34.1586658 434.595999,34.336 C434.139997,34.4120004 433.696668,34.519666 433.265999,34.659 C432.83533,34.798334 432.455334,34.9883321 432.125999,35.229 C431.796664,35.4696679 431.537,35.7863314 431.346999,36.179 C431.156998,36.5716686 431.061999,37.0466639 431.061999,37.604 C431.061999,38.0853357 431.201331,38.490665 431.479999,38.82 C431.758667,39.149335 432.094331,39.408999 432.486999,39.599 C432.879668,39.789001 433.31033,39.9219996 433.778999,39.998 C434.247668,40.0740004 434.671997,40.112 435.051999,40.112 C435.533335,40.112 436.052663,40.0486673 436.609999,39.922 C437.167335,39.7953327 437.692997,39.5800015 438.186999,39.276 C438.681002,38.9719985 439.092664,38.585669 439.421999,38.117 C439.751334,37.648331 439.915999,37.0720034 439.915999,36.388 L439.915999,33.158 Z" id="3-·-Кільцева-дорога"></path>
            </g>
        </g>
    </g>
</svg>