<?xml version="1.0" encoding="UTF-8"?>
<svg width="310px" height="60px" viewBox="0 0 310 60" version="1.1" xmlns="http://www.w3.org/2000/svg" xmlns:xlink="http://www.w3.org/1999/xlink">
    <!-- Generator: Sketch 51.3 (57544) - http://www.bohemiancoding.com/sketch -->
    <title>dsp_r</title>
    <desc>Created with Sketch.</desc>
    <defs></defs>
    <g id="Page-1" stroke="none" stroke-width="1" fill="none" fill-rule="evenodd">
        <g id="statusbar" transform="translate(-950.000000, 0.000000)" fill="#FFFFFF">
            <path d="M951.502001,15.868 L973.352001,15.868 L973.352001,43 L968.602001,43 L968.602001,19.972 L956.252001,19.972 L956.252001,43 L951.502001,43 L951.502001,15.868 Z M995.362001,26.584 L988.864001,26.584 L988.864001,43 L984.532001,43 L984.532001,26.584 L977.768001,26.584 L977.768001,23.354 L995.362001,23.354 L995.362001,26.584 Z M999.664001,37.87 L1004.946,37.87 L1004.946,43 C1004.92067,44.5706745 1004.43934,45.8879947 1003.502,46.952 C1002.56466,48.0160053 1001.33601,48.6999985 999.816001,49.004 L999.816001,46.686 C1000.652,46.4833323 1001.279,46.0210036 1001.697,45.299 C1002.115,44.5769964 1002.31133,43.8106707 1002.286,43 L999.664001,43 L999.664001,37.87 Z M1022.1,16.4 L1040.302,16.4 L1040.302,20.01 C1038.90866,21.5806745 1037.64201,23.2083249 1036.502,24.893 C1035.36199,26.5776751 1034.36767,28.3636572 1033.519,30.251 C1032.67033,32.1383428 1031.98,34.1333228 1031.448,36.236 C1030.916,38.3386772 1030.56133,40.5933213 1030.384,43 L1025.634,43 C1025.786,40.8973228 1026.147,38.8200103 1026.717,36.768 C1027.287,34.7159897 1028.02166,32.727343 1028.921,30.802 C1029.82034,28.876657 1030.86533,27.0273422 1032.056,25.254 C1033.24667,23.4806578 1034.52599,21.8213411 1035.894,20.276 L1022.1,20.276 L1022.1,16.4 Z M1061.788,31.372 L1066.424,31.372 C1067.26,31.372 1067.95033,31.1630021 1068.495,30.745 C1069.03967,30.3269979 1069.312,29.7380038 1069.312,28.978 C1069.312,28.0913289 1069.065,27.4706684 1068.571,27.116 C1068.077,26.7613316 1067.36134,26.584 1066.424,26.584 L1061.788,26.584 L1061.788,31.372 Z M1057.456,23.354 L1067.792,23.354 C1069.56534,23.354 1070.984,23.752996 1072.048,24.551 C1073.11201,25.349004 1073.644,26.5713251 1073.644,28.218 C1073.644,29.2060049 1073.397,30.0546631 1072.903,30.764 C1072.409,31.4733369 1071.71867,32.0179981 1070.832,32.398 L1070.832,32.474 C1072.04801,32.7273346 1072.96633,33.2973289 1073.587,34.184 C1074.20767,35.0706711 1074.518,36.1853266 1074.518,37.528 C1074.518,38.2880038 1074.37867,39.0036633 1074.1,39.675 C1073.82133,40.3463367 1073.39067,40.9289975 1072.808,41.423 C1072.22533,41.9170025 1071.47801,42.3033319 1070.566,42.582 C1069.654,42.8606681 1068.56467,43 1067.298,43 L1057.456,43 L1057.456,23.354 Z M1061.788,39.77 L1066.918,39.77 C1067.98201,39.77 1068.79266,39.5230025 1069.35,39.029 C1069.90734,38.5349975 1070.186,37.8446711 1070.186,36.958 C1070.186,36.0713289 1069.90734,35.393669 1069.35,34.925 C1068.79266,34.456331 1067.98201,34.222 1066.918,34.222 L1061.788,34.222 L1061.788,39.77 Z M1092.956,31.448 C1092.90533,30.7639966 1092.75967,30.1053365 1092.519,29.472 C1092.27833,28.8386635 1091.949,28.287669 1091.531,27.819 C1091.113,27.350331 1090.60634,26.9703348 1090.011,26.679 C1089.41566,26.3876652 1088.75067,26.242 1088.016,26.242 C1087.256,26.242 1086.56567,26.3749987 1085.945,26.641 C1085.32433,26.9070013 1084.79234,27.274331 1084.349,27.743 C1083.90566,28.211669 1083.551,28.7626635 1083.285,29.396 C1083.019,30.0293365 1082.87333,30.7133297 1082.848,31.448 L1092.956,31.448 Z M1082.848,34.298 C1082.848,35.0580038 1082.95567,35.7926631 1083.171,36.502 C1083.38633,37.2113369 1083.70933,37.8319973 1084.14,38.364 C1084.57067,38.8960027 1085.11533,39.3203318 1085.774,39.637 C1086.43267,39.9536682 1087.218,40.112 1088.13,40.112 C1089.39667,40.112 1090.41633,39.8396694 1091.189,39.295 C1091.96167,38.7503306 1092.538,37.9333388 1092.918,36.844 L1097.022,36.844 C1096.794,37.9080053 1096.40134,38.8579958 1095.844,39.694 C1095.28666,40.5300042 1094.61534,41.2329972 1093.83,41.803 C1093.04466,42.3730028 1092.16434,42.8036652 1091.189,43.095 C1090.21366,43.3863348 1089.19401,43.532 1088.13,43.532 C1086.58466,43.532 1085.21667,43.2786692 1084.026,42.772 C1082.83533,42.2653308 1081.82834,41.5560046 1081.005,40.644 C1080.18166,39.7319954 1079.561,38.642673 1079.143,37.376 C1078.725,36.109327 1078.516,34.7160076 1078.516,33.196 C1078.516,31.8026597 1078.73766,30.4790063 1079.181,29.225 C1079.62434,27.9709937 1080.25766,26.8690048 1081.081,25.919 C1081.90434,24.9689952 1082.89866,24.2153361 1084.064,23.658 C1085.22934,23.1006639 1086.54666,22.822 1088.016,22.822 C1089.56134,22.822 1090.94833,23.1449968 1092.177,23.791 C1093.40567,24.4370032 1094.42533,25.2919947 1095.236,26.356 C1096.04667,27.4200053 1096.63567,28.6423264 1097.003,30.023 C1097.37034,31.4036736 1097.46533,32.8286593 1097.288,34.298 L1082.848,34.298 Z M1102.008,23.354 L1106.112,23.354 L1106.112,26.014 L1106.188,26.014 C1106.796,24.8739943 1107.64466,24.0570025 1108.734,23.563 C1109.82334,23.0689975 1111.00133,22.822 1112.268,22.822 C1113.81334,22.822 1115.16233,23.0943306 1116.315,23.639 C1117.46767,24.1836694 1118.424,24.9309952 1119.184,25.881 C1119.944,26.8310047 1120.514,27.939327 1120.894,29.206 C1121.274,30.472673 1121.464,31.8279928 1121.464,33.272 C1121.464,34.5893399 1121.293,35.8686605 1120.951,37.11 C1120.609,38.3513395 1120.08967,39.4469953 1119.393,40.397 C1118.69633,41.3470047 1117.81601,42.1069971 1116.752,42.677 C1115.688,43.2470029 1114.43401,43.532 1112.99,43.532 C1112.35666,43.532 1111.72334,43.4750006 1111.09,43.361 C1110.45666,43.2469994 1109.84867,43.0633346 1109.266,42.81 C1108.68333,42.5566654 1108.145,42.2336686 1107.651,41.841 C1107.157,41.4483314 1106.74534,40.9860027 1106.416,40.454 L1106.34,40.454 L1106.34,50.258 L1102.008,50.258 L1102.008,23.354 Z M1117.132,33.196 C1117.132,32.3093289 1117.018,31.4480042 1116.79,30.612 C1116.562,29.7759958 1116.22,29.0350032 1115.764,28.389 C1115.308,27.7429968 1114.738,27.2236686 1114.054,26.831 C1113.37,26.4383314 1112.58467,26.242 1111.698,26.242 C1109.87399,26.242 1108.49967,26.875327 1107.575,28.142 C1106.65033,29.408673 1106.188,31.0933228 1106.188,33.196 C1106.188,34.1840049 1106.30833,35.1023291 1106.549,35.951 C1106.78967,36.7996709 1107.15066,37.527997 1107.632,38.136 C1108.11334,38.744003 1108.68966,39.2253316 1109.361,39.58 C1110.03234,39.9346684 1110.81133,40.112 1111.698,40.112 C1112.68601,40.112 1113.522,39.9093354 1114.206,39.504 C1114.89,39.0986646 1115.45366,38.5730032 1115.897,37.927 C1116.34034,37.2809968 1116.657,36.5463374 1116.847,35.723 C1117.037,34.8996626 1117.132,34.0573376 1117.132,33.196 Z M1138.428,31.524 C1138.428,31.1439981 1138.504,30.789335 1138.656,30.46 C1138.808,30.130665 1139.017,29.8330013 1139.283,29.567 C1139.549,29.3009987 1139.853,29.0920008 1140.195,28.94 C1140.537,28.7879992 1140.898,28.712 1141.278,28.712 C1141.658,28.712 1142.019,28.7879992 1142.361,28.94 C1142.703,29.0920008 1143.007,29.3009987 1143.273,29.567 C1143.539,29.8330013 1143.748,30.130665 1143.9,30.46 C1144.052,30.789335 1144.128,31.1439981 1144.128,31.524 C1144.128,32.2840038 1143.84934,32.9553304 1143.292,33.538 C1142.73466,34.1206696 1142.06334,34.412 1141.278,34.412 C1140.49266,34.412 1139.82134,34.1206696 1139.264,33.538 C1138.70666,32.9553304 1138.428,32.2840038 1138.428,31.524 Z M1161.738,20.808 C1162.65,20.808 1163.53666,20.7320008 1164.398,20.58 C1165.25934,20.4279992 1166.03833,20.1746684 1166.735,19.82 C1167.43167,19.4653316 1168.027,19.0093361 1168.521,18.452 C1169.015,17.8946639 1169.338,17.2106707 1169.49,16.4 L1173.024,16.4 L1173.024,43 L1168.274,43 L1168.274,24.228 L1161.738,24.228 L1161.738,20.808 Z M1197.162,23.126 C1197.06067,22.0366612 1196.67434,21.1563367 1196.003,20.485 C1195.33166,19.8136633 1194.42601,19.478 1193.286,19.478 C1192.50066,19.478 1191.823,19.6236652 1191.253,19.915 C1190.683,20.2063348 1190.20167,20.5926643 1189.809,21.074 C1189.41633,21.5553357 1189.09967,22.1063302 1188.859,22.727 C1188.61833,23.3476698 1188.422,23.9999966 1188.27,24.684 C1188.118,25.3680034 1188.01033,26.0456633 1187.947,26.717 C1187.88367,27.3883367 1187.82667,28.0153304 1187.776,28.598 L1187.852,28.674 C1188.43467,27.6099947 1189.239,26.8183359 1190.265,26.299 C1191.29101,25.7796641 1192.39933,25.52 1193.59,25.52 C1194.90734,25.52 1196.08533,25.7479977 1197.124,26.204 C1198.16267,26.6600023 1199.043,27.286996 1199.765,28.085 C1200.487,28.883004 1201.038,29.8266612 1201.418,30.916 C1201.798,32.0053388 1201.988,33.183327 1201.988,34.45 C1201.988,35.7420065 1201.779,36.9389945 1201.361,38.041 C1200.943,39.1430055 1200.34134,40.1056625 1199.556,40.929 C1198.77066,41.7523374 1197.83334,42.3919977 1196.744,42.848 C1195.65466,43.3040023 1194.45134,43.532 1193.134,43.532 C1191.18332,43.532 1189.58101,43.1710036 1188.327,42.449 C1187.07299,41.7269964 1186.085,40.7390063 1185.363,39.485 C1184.641,38.2309937 1184.14067,36.7616751 1183.862,35.077 C1183.58333,33.3923249 1183.444,31.5746764 1183.444,29.624 C1183.444,28.027992 1183.615,26.4193414 1183.957,24.798 C1184.299,23.1766586 1184.86266,21.7010067 1185.648,20.371 C1186.43334,19.0409934 1187.46566,17.9580042 1188.745,17.122 C1190.02434,16.2859958 1191.60132,15.868 1193.476,15.868 C1194.54001,15.868 1195.54066,16.0453316 1196.478,16.4 C1197.41534,16.7546684 1198.245,17.2486635 1198.967,17.882 C1199.689,18.5153365 1200.278,19.2753289 1200.734,20.162 C1201.19,21.0486711 1201.44333,22.0366612 1201.494,23.126 L1197.162,23.126 Z M1192.982,39.922 C1193.76734,39.922 1194.45133,39.7636683 1195.034,39.447 C1195.61667,39.1303317 1196.10433,38.7186692 1196.497,38.212 C1196.88967,37.7053308 1197.181,37.1163367 1197.371,36.445 C1197.561,35.7736633 1197.656,35.0833369 1197.656,34.374 C1197.656,33.6646631 1197.561,32.98067 1197.371,32.322 C1197.181,31.66333 1196.88967,31.0870025 1196.497,30.593 C1196.10433,30.0989975 1195.61667,29.7000015 1195.034,29.396 C1194.45133,29.0919985 1193.76734,28.94 1192.982,28.94 C1192.19666,28.94 1191.50634,29.0856652 1190.911,29.377 C1190.31566,29.6683348 1189.81534,30.0609975 1189.41,30.555 C1189.00466,31.0490025 1188.70067,31.62533 1188.498,32.284 C1188.29533,32.94267 1188.194,33.6393297 1188.194,34.374 C1188.194,35.1086703 1188.29533,35.80533 1188.498,36.464 C1188.70067,37.12267 1189.00466,37.7116641 1189.41,38.231 C1189.81534,38.7503359 1190.31566,39.1619985 1190.911,39.466 C1191.50634,39.7700015 1192.19666,39.922 1192.982,39.922 Z M1207.202,37.87 L1212.484,37.87 L1212.484,43 L1207.202,43 L1207.202,37.87 Z M1207.202,23.772 L1212.484,23.772 L1212.484,28.902 L1207.202,28.902 L1207.202,23.772 Z M1220.7,33.272 L1228.756,33.272 L1228.756,21.568 L1228.68,21.568 L1220.7,33.272 Z M1236.28,36.692 L1232.86,36.692 L1232.86,43 L1228.756,43 L1228.756,36.692 L1217.356,36.692 L1217.356,32.398 L1228.756,16.4 L1232.86,16.4 L1232.86,33.272 L1236.28,33.272 L1236.28,36.692 Z M1243.546,16.4 L1257.302,16.4 L1257.302,20.276 L1246.776,20.276 L1245.408,27.04 L1245.484,27.116 C1246.06667,26.45733 1246.80766,25.9570017 1247.707,25.615 C1248.60634,25.2729983 1249.49933,25.102 1250.386,25.102 C1251.70334,25.102 1252.88133,25.3236645 1253.92,25.767 C1254.95867,26.2103356 1255.83266,26.830996 1256.542,27.629 C1257.25134,28.427004 1257.78966,29.3706612 1258.157,30.46 C1258.52434,31.5493388 1258.708,32.727327 1258.708,33.994 C1258.708,35.0580053 1258.537,36.153661 1258.195,37.281 C1257.853,38.408339 1257.30834,39.4343287 1256.561,40.359 C1255.81366,41.2836713 1254.85734,42.0436637 1253.692,42.639 C1252.52666,43.2343363 1251.13334,43.532 1249.512,43.532 C1248.21999,43.532 1247.02301,43.3610017 1245.921,43.019 C1244.81899,42.6769983 1243.85,42.1640034 1243.014,41.48 C1242.178,40.7959966 1241.513,39.9536717 1241.019,38.953 C1240.525,37.9523283 1240.25267,36.7806734 1240.202,35.438 L1244.534,35.438 C1244.66067,36.8820072 1245.15466,37.9903295 1246.016,38.763 C1246.87734,39.5356705 1248.01733,39.922 1249.436,39.922 C1250.348,39.922 1251.12066,39.7700015 1251.754,39.466 C1252.38734,39.1619985 1252.90033,38.7440027 1253.293,38.212 C1253.68567,37.6799973 1253.96433,37.0593369 1254.129,36.35 C1254.29367,35.6406631 1254.376,34.8806707 1254.376,34.07 C1254.376,33.3353297 1254.27467,32.6323367 1254.072,31.961 C1253.86933,31.2896633 1253.56534,30.7006692 1253.16,30.194 C1252.75466,29.6873308 1252.229,29.2820015 1251.583,28.978 C1250.937,28.6739985 1250.18334,28.522 1249.322,28.522 C1248.41,28.522 1247.555,28.6929983 1246.757,29.035 C1245.959,29.3770017 1245.38267,30.016662 1245.028,30.954 L1240.696,30.954 L1243.546,16.4 Z" id="Пт,-7-вер."></path>
        </g>
    </g>
</svg>