<?xml version="1.0" encoding="UTF-8"?>
<svg width="16px" height="16px" viewBox="0 0 16 16" version="1.1" xmlns="http://www.w3.org/2000/svg" xmlns:xlink="http://www.w3.org/1999/xlink">
    <!-- Generator: Sketch 53.1 (72631) - https://sketchapp.com -->
    <title>ha3</title>
    <desc>Created with Sketch.</desc>
    <g id="ha3" stroke="none" stroke-width="1" fill="none" fill-rule="evenodd">
        <path d="M5.75,14.1471143 L5.75,14.1471143 C5.20208619,14.5482151 4.43275788,14.4291996 4.03165713,13.8812858 C3.85038401,13.6336621 3.76826756,13.3271993 3.80144284,13.0221143 L3.80144284,13.0221143 C3.9809281,11.3715405 3.07062429,9.7948481 1.55144284,9.125 L1.55144284,9.125 C0.930122498,8.85104309 0.648528794,8.12527749 0.9224857,7.50395714 C1.04629755,7.22315817 1.27064387,6.99881185 1.55144284,6.875 L1.55144284,6.875 C3.07062429,6.2051519 3.9809281,4.62845946 3.80144284,2.97788568 L3.80144284,2.97788568 C3.72803631,2.30282803 4.21577091,1.69607792 4.89082857,1.62267139 C5.19591353,1.58949611 5.50237631,1.67161256 5.75,1.85288568 L5.75,1.85288568 C7.08969619,2.83361136 8.91030381,2.83361136 10.25,1.85288568 L10.25,1.85288568 C10.7979138,1.45178493 11.5672421,1.57080044 11.9683429,2.11871425 C12.149616,2.36633794 12.2317324,2.67280072 12.1985572,2.97788568 L12.1985572,2.97788568 C12.0190719,4.62845946 12.9293757,6.2051519 14.4485572,6.875 L14.4485572,6.875 C15.0698775,7.14895691 15.3514712,7.87472251 15.0775143,8.49604286 C14.9537025,8.77684183 14.7293561,9.00118815 14.4485572,9.125 L14.4485572,9.125 C12.9293757,9.7948481 12.0190719,11.3715405 12.1985572,13.0221143 L12.1985572,13.0221143 C12.2719637,13.697172 11.7842291,14.3039221 11.1091714,14.3773286 C10.8040865,14.4105039 10.4976237,14.3283874 10.25,14.1471143 L10.25,14.1471143 C8.91030381,13.1663886 7.08969619,13.1663886 5.75,14.1471143 Z" id="Star" fill="#000000"></path>
    </g>
</svg>