<?xml version="1.0" encoding="UTF-8"?>
<svg width="64px" height="64px" viewBox="0 0 64 64" version="1.1" xmlns="http://www.w3.org/2000/svg" xmlns:xlink="http://www.w3.org/1999/xlink">
    <!-- Generator: Sketch 43.1 (39012) - http://www.bohemiancoding.com/sketch -->
    <title>case</title>
    <desc>Created with Sketch.</desc>
    <defs></defs>
    <g id="Page-1" stroke="none" stroke-width="1" fill="none" fill-rule="evenodd">
        <g id="case">
            <circle id="Oval" fill="#FDF623" fill-rule="nonzero" opacity="0.9" cx="32" cy="32" r="32"></circle>
            <path d="M20.2982792,37.1080306 L23.0124283,37.1080306 L19.2581262,32.7036329 L22.6386233,28.7380497 L20.1357553,28.7380497 L18.6892925,30.6395793 C18.2667304,31.208413 17.6166348,32.0372849 17.2428298,32.5248566 L17.210325,32.5248566 L17.210325,28.7380497 L15,28.7380497 L15,37.1080306 L17.210325,37.1080306 L17.210325,33.0936902 L17.2428298,33.0936902 C17.6328872,33.6625239 18.3154876,34.5564054 18.7705545,35.1414914 L20.2982792,37.1080306 Z M27.8556405,37.3030593 C25.1089866,37.3030593 23.3049713,35.6940727 23.3049713,32.8824092 C23.3049713,30.3632887 24.9789675,28.543021 27.498088,28.543021 C29.9196941,28.543021 31.1711281,29.9894837 31.1711281,33.0124283 C31.1711281,33.1424474 31.1548757,33.418738 31.1386233,33.5325048 L25.5315488,33.5325048 C25.5640535,34.8164436 26.6042065,35.6453155 28.1156788,35.6453155 C29.042065,35.6453155 29.8546845,35.4015296 30.5535373,34.9627151 L30.5860421,36.750478 C29.8709369,37.0917782 28.9120459,37.3030593 27.8556405,37.3030593 Z M25.499044,32.0372849 L29.1720841,32.0372849 C29.1720841,30.6720841 28.4894837,30.0869981 27.416826,30.0869981 C26.457935,30.0869981 25.6128107,30.7370937 25.499044,32.0372849 Z M36.9894837,27.58413 C38.5497132,27.58413 39.3460803,26.4464627 39.6711281,25.5688337 L38.7122371,25 C38.4196941,25.5200765 37.9483748,26.1701721 36.9894837,26.1701721 C35.998088,26.1701721 35.543021,25.5688337 35.2667304,25 L34.3078394,25.5688337 C34.6328872,26.4302103 35.3967495,27.58413 36.9894837,27.58413 Z M32.9913958,37.1080306 L35.2179732,37.1080306 L38.8260038,31.5984704 L38.8585086,31.5984704 C38.793499,32.7036329 38.7609943,33.7112811 38.7609943,34.8001912 L38.7609943,37.1080306 L40.9063098,37.1080306 L40.9063098,28.7380497 L38.6797323,28.7380497 L35.0554493,34.3613767 L35.0229446,34.3613767 C35.0879541,33.3699809 35.1367113,32.248566 35.1367113,30.9971319 L35.1367113,28.7380497 L32.9913958,28.7380497 L32.9913958,37.1080306 Z M47.2284895,37.2217973 C47.9435946,37.2217973 48.4474187,37.1405354 49,36.9617591 L48.8862333,35.2552581 C48.414914,35.4665392 47.9760994,35.5478011 47.4722753,35.5478011 C45.7007648,35.5478011 44.9206501,34.4263862 44.9206501,32.914914 C44.9206501,31.4521989 45.7820268,30.2657744 47.4235182,30.2657744 C47.959847,30.2657744 48.3499044,30.3632887 48.7399618,30.5258126 L48.9024857,28.8680688 C48.3824092,28.7055449 47.8460803,28.6405354 47.1634799,28.6405354 C44.709369,28.6405354 42.6453155,30.2657744 42.6453155,32.9636711 C42.6453155,35.5640535 44.4493308,37.2217973 47.2284895,37.2217973 Z" id="кейс-copy" fill="#20384C"></path>
        </g>
    </g>
</svg>