<?xml version="1.0" encoding="UTF-8"?>
<svg width="64px" height="64px" viewBox="0 0 64 64" version="1.1" xmlns="http://www.w3.org/2000/svg" xmlns:xlink="http://www.w3.org/1999/xlink">
    <!-- Generator: Sketch 43.1 (39012) - http://www.bohemiancoding.com/sketch -->
    <title>case</title>
    <desc>Created with Sketch.</desc>
    <defs></defs>
    <g id="Page-1" stroke="none" stroke-width="1" fill="none" fill-rule="evenodd">
        <g id="case">
            <circle id="Oval" fill="#FDF623" fill-rule="nonzero" opacity="0.9" cx="32" cy="32" r="32"></circle>
            <path d="M22.2556996,37.7766871 L19.1014752,33.1828221 L22.1591417,28.9398773 L19.310684,28.9398773 L16.5748771,32.9754601 L16.5748771,28.9398773 L14,28.9398773 L14,37.7766871 L16.5748771,37.7766871 L16.5748771,33.5018405 L19.310684,37.7766871 L22.2556996,37.7766871 Z M31.2355834,33.2147239 C31.2355834,33.5337423 31.2194904,33.8208589 31.1712114,34.0760736 L25.1041574,34.0760736 C25.44211,35.3361963 26.5525257,35.990184 27.9043362,35.990184 C28.886008,35.990184 29.835494,35.6552147 30.688422,35.1128834 L30.688422,37.202454 C29.771122,37.7288344 28.7250782,38 27.5824765,38 C24.4443451,38 22.6419312,36.0699387 22.6419312,33.390184 C22.6419312,30.5828221 24.6374609,28.7165644 27.1157801,28.7165644 C29.3848905,28.7165644 31.2355834,30.2638037 31.2355834,33.2147239 Z M25.0558784,32.5447853 L28.7894502,32.5447853 C28.7733572,31.396319 28.049173,30.7263804 27.0996871,30.7263804 C26.1341082,30.7263804 25.2972731,31.4282209 25.0558784,32.5447853 Z M40.0062584,25 L38.1716585,25 C38.1716585,25.9730061 37.7854269,26.4993865 36.9164059,26.4993865 C36.0473849,26.4993865 35.6611533,25.9730061 35.6611533,25 L33.8265534,25 C33.8104604,27.0257669 35.2105498,27.8711656 36.9164059,27.8711656 C38.606169,27.8711656 40.0062584,27.0257669 40.0062584,25 Z M32.8931605,37.7766871 L35.3875726,37.7766871 L38.622262,32.6723926 L38.6544479,32.6723926 L38.6544479,37.7766871 L41.0362092,37.7766871 L41.0362092,28.9558282 L38.6383549,28.9558282 L35.3071077,34.1239264 L35.2749218,34.1239264 L35.2749218,28.9558282 L32.8931605,28.9558282 L32.8931605,37.7766871 Z M45.3008494,33.3582822 C45.3008494,31.9067485 46.4273581,31.0134969 47.7630755,31.0134969 C48.5516316,31.0134969 49.2597228,31.204908 50,31.6834356 L50,29.3386503 C49.2436299,28.8920245 48.278051,28.7165644 47.376844,28.7165644 C44.753688,28.7165644 42.6937863,30.6466258 42.6937863,33.3423313 C42.6937863,36.0699387 44.737595,38 47.376844,38 C48.3263299,38 49.2597228,37.7766871 50,37.393865 L50,35.0490798 C49.2597228,35.5754601 48.4711667,35.7030675 47.7630755,35.7030675 C46.4273581,35.7030675 45.3008494,34.8257669 45.3008494,33.3582822 Z" id="кейс-copy" fill="#20384C"></path>
        </g>
    </g>
</svg>