<?xml version="1.0" encoding="utf-8"?>
<!-- Generator: Adobe Illustrator 16.0.0, SVG Export Plug-In . SVG Version: 6.00 Build 0)  -->
<!DOCTYPE svg PUBLIC "-//W3C//DTD SVG 1.1//EN" "http://www.w3.org/Graphics/SVG/1.1/DTD/svg11.dtd">
<svg version="1.1" id="Layer_1" xmlns="http://www.w3.org/2000/svg" xmlns:xlink="http://www.w3.org/1999/xlink" x="0px" y="0px"
	 width="48px" height="48px" viewBox="0 0 48 48" enable-background="new 0 0 48 48" xml:space="preserve">
<path fill="#148ECE" d="M24.242,18.773v-2.481c0-0.865,0-3.5,3.533-3.5H30.5v-2.68C29.791,10.057,27.734,10,26.544,10
	c-3.569,0-5.617,2.11-5.617,5.789v2.984c0,0.553-0.247,0.8-0.8,0.8H15.5v3.14h4.627c0.553,0,0.8,0.249,0.8,0.8V38h3.313V23.513
	c0-0.552,0.247-0.8,0.8-0.8h4.733l0.412-3.14h-5.145C24.489,19.573,24.242,19.326,24.242,18.773z"/>
</svg>
