<?xml version="1.0" encoding="UTF-8"?>
<svg width="64px" height="64px" viewBox="0 0 64 64" version="1.1" xmlns="http://www.w3.org/2000/svg" xmlns:xlink="http://www.w3.org/1999/xlink">
    <!-- Generator: Sketch 43.1 (39012) - http://www.bohemiancoding.com/sketch -->
    <title>i--04</title>
    <desc>Created with Sketch.</desc>
    <defs></defs>
    <g id="Page-1" stroke="none" stroke-width="1" fill="none" fill-rule="evenodd">
        <g id="i--04" stroke="#212F3F" stroke-width="2">
            <path d="M51.2755454,22.6898975 C51.2759321,22.6903272 51.2763371,22.6907772 51.2767618,22.6912491 C51.2998049,22.7168525 51.2998049,22.7168525 51.3352228,22.7562058 C51.4239812,22.8548262 51.4239812,22.8548262 51.5571187,23.0027568 C51.8848418,23.3668936 51.8848418,23.3668936 52.3491162,23.882754 C53.4415266,25.0965433 53.4415266,25.0965433 54.752419,26.5530905 C57.3742039,29.4661848 57.3742039,29.4661848 58.2481322,30.4372162 C59.0164942,31.2909518 59.0172428,32.7082164 58.2481322,33.5627838 C57.3742039,34.5338152 57.3742039,34.5338152 54.752419,37.4469095 C53.4415266,38.9034567 53.4415266,38.9034567 52.3491162,40.117246 C51.8848418,40.6331064 51.8848418,40.6331064 51.5571187,40.9972432 C51.4239812,41.1451738 51.4239812,41.1451738 51.3352228,41.2437942 C51.2998049,41.2831475 51.2998049,41.2831475 51.2767618,41.3087509 C51.2676406,41.3188855 51.2676406,41.3188855 51.2617732,41.3254049 C51.2594595,41.3279756 51.2594595,41.3279756 51.2579794,41.3296203 C51.2573968,41.3302676 51.2573968,41.3302676 51.2570251,41.3306806 C51.2568789,41.330843 51.2568789,41.330843 51.2567858,41.3309465 L51.2567059,41.3310353 C49.96408,42.6217065 48,42.1306865 48,41 C48,40.6451014 48,40.6451014 48,40.2847401 C48,38.6762074 48,38.6762074 48,37.5535087 C48,37.1835165 48,37.1835165 48,37.0983861 C48,36.4684185 47.4827111,36 46.8913705,36 L37,36 L36,36 L36,37 L36,46.8913705 C36,47.4944389 36.4893957,48 37.1011496,48 C37.197799,48 37.197799,48 37.6226582,48 C38.9806241,48 38.9806241,48 41,48 C42.1306865,48 42.6217065,49.96408 41.2928932,51.2928932 C40.7197716,51.8660148 40.0558175,52.5041213 39.3154603,53.1956524 C39.1024812,53.3945857 38.8838252,53.5973326 38.6599194,53.8035557 C37.5572763,54.8191182 36.3745587,55.8761229 35.1916716,56.911737 C34.7775416,57.2743066 34.3930533,57.6082318 34.0481422,57.9057138 C33.8415785,58.0838727 33.6944017,58.2100453 33.6165349,58.2764448 C32.7394531,59.0362727 31.2973937,59.0222919 30.4372162,58.2481322 C29.4661848,57.3742039 29.4661848,57.3742039 26.5530905,54.752419 C25.0965433,53.4415266 25.0965433,53.4415266 23.882754,52.3491162 C23.3668936,51.8848418 23.3668936,51.8848418 23.0027568,51.5571187 C22.8548262,51.4239812 22.8548262,51.4239812 22.7562058,51.3352228 C22.7168525,51.2998049 22.7168525,51.2998049 22.6912491,51.2767618 C22.6811145,51.2676406 22.6811145,51.2676406 22.6745951,51.2617732 C22.6720244,51.2594595 22.6720244,51.2594595 22.6703797,51.2579794 C22.6697324,51.2573968 22.6697324,51.2573968 22.6693194,51.2570251 C22.669157,51.2568789 22.669157,51.2568789 22.6690535,51.2567858 L22.6689647,51.2567059 C21.3782935,49.96408 21.8693135,48 23,48 C25.0216428,48 25.0216428,48 26.3797262,48 C26.8026689,48 26.8026689,48 26.8988504,48 C27.5236071,48 28,47.4882777 28,46.8913705 L28,37 L28,36 L27,36 L17.1086295,36 C16.5218638,36 16,36.4567796 16,37.0984443 C16,37.2036838 16,37.2036838 16,37.6533215 C16,38.7618371 16,38.7618371 16,40.2801098 C16,40.6428489 16,40.6428489 16,41 C16,42.1257762 14.052942,42.6174296 12.7244546,41.3101025 C12.7240679,41.3096728 12.7236629,41.3092228 12.7232382,41.3087509 C12.7001951,41.2831475 12.7001951,41.2831475 12.6647772,41.2437942 C12.5760188,41.1451738 12.5760188,41.1451738 12.4428813,40.9972432 C12.1151582,40.6331064 12.1151582,40.6331064 11.6508838,40.117246 C10.5584734,38.9034567 10.5584734,38.9034567 9.24758099,37.4469095 C6.62579612,34.5338152 6.62579612,34.5338152 5.75186783,33.5627838 C4.98350577,32.7090482 4.98275715,31.2917836 5.75186783,30.4372162 C6.62579612,29.4661848 6.62579612,29.4661848 9.24758099,26.5530905 C10.5584734,25.0965433 10.5584734,25.0965433 11.6508838,23.882754 C12.1151582,23.3668936 12.1151582,23.3668936 12.4428813,23.0027568 C12.5760188,22.8548262 12.5760188,22.8548262 12.6647772,22.7562058 C12.7001951,22.7168525 12.7001951,22.7168525 12.7232382,22.6912491 C12.7323594,22.6811145 12.7323594,22.6811145 12.7382268,22.6745951 C12.7405405,22.6720244 12.7405405,22.6720244 12.7420206,22.6703797 C12.7426032,22.6697324 12.7426032,22.6697324 12.7429749,22.6693194 C12.7431211,22.669157 12.7431211,22.669157 12.7432142,22.6690535 L12.7432941,22.6689647 C14.03592,21.3782935 16,21.8693135 16,23 C16,23.3778368 16,23.3778368 16,23.7625233 C16,25.2667715 16,25.2667715 16,26.3614715 C16,26.7987858 16,26.7987858 16,26.9010072 C16,27.5298013 16.5160728,28 17.1086295,28 L27,28 L28,28 L28,27 L28,17.1086295 C28,16.5055611 27.5106043,16 26.8988504,16 C26.7810613,16 26.7810613,16 26.2706723,16 C24.9220981,16 24.9220981,16 23,16 C21.8693135,16 21.3782935,14.03592 22.7071068,12.7071068 C23.3723009,12.0419126 24.5186796,10.9785089 26.0107225,9.63320886 C26.1098151,9.54389155 26.1098151,9.54389155 26.2089881,9.45461641 C27.1283221,8.62729195 28.113883,7.75087562 29.0995201,6.88139643 C29.4445511,6.57702758 29.764916,6.29529365 30.0523698,6.04317571 C30.2246983,5.89203103 30.3478669,5.78425334 30.4129882,5.72738551 C31.2753139,4.96902387 32.7043338,4.97926283 33.5627838,5.75186783 C34.5338152,6.62579612 34.5338152,6.62579612 37.4469095,9.24758099 C40.3600038,11.8693659 40.3600038,11.8693659 41.3310353,12.7432941 C42.6217065,14.03592 42.1306865,16 41,16 C38.0505748,16 38.0505748,16 37.1011496,16 C36.4763929,16 36,16.5117223 36,17.1086295 L36,27 L36,28 L37,28 L46.8913705,28 C47.4944389,28 48,27.5106043 48,26.8988504 C48,26.8121385 48,26.8121385 48,26.4281977 C48,25.0687443 48,25.0687443 48,23 C48,21.8742238 49.947058,21.3825704 51.2755454,22.6898975 Z" id="Combined-Shape"></path>
        </g>
    </g>
</svg>