<?xml version="1.0" encoding="UTF-8"?>
<svg width="64px" height="64px" viewBox="0 0 64 64" version="1.1" xmlns="http://www.w3.org/2000/svg" xmlns:xlink="http://www.w3.org/1999/xlink">
    <!-- Generator: Sketch 43.1 (39012) - http://www.bohemiancoding.com/sketch -->
    <title>i--01</title>
    <desc>Created with Sketch.</desc>
    <defs></defs>
    <g id="Page-1" stroke="none" stroke-width="1" fill="none" fill-rule="evenodd" stroke-linecap="round" stroke-linejoin="round">
        <g id="i--01" stroke-width="1.8" stroke="#212F3F">
            <g id="i__01" transform="translate(5.000000, 7.000000)">
                <g id="Layer_1">
                    <path d="M47.8024804,32.5412954 L31.9219405,48.7787244 C31.1476382,49.538195 30.0790626,50 28.9798468,50 C27.880631,50 26.8133321,49.538195 26.0683932,48.7787244 L2.94273208,25.1485071 C1.29327011,23.4979939 0,20.2972748 0,17.9537283 L0,4.22463655 C0,1.91430879 1.87607149,0 4.13897501,0 L17.5951122,0 C19.8905709,0 23.0279956,1.32028034 24.6768193,3.00336095 L47.8031187,26.5677922 C48.548696,27.3598301 49,28.4482309 49,29.5698505 C48.9993617,30.6927727 48.5474193,31.7818248 47.8024804,32.5412954 Z M9.99907486,6 C7.78120422,6 6,7.78120422 6,10.0003084 C6,12.2194125 7.78182099,14 9.99907486,14 C12.2200293,14 14,12.2194125 14,10.0003084 C14,7.78120422 12.2194125,6 9.99907486,6 Z M26,0 C28.0664222,0.360591583 30.4215077,1.49834264 31.7739016,2.88212912 L54.8071975,26.4299311 C55.5498379,27.2214101 56,28.3090428 56,29.4298708 C56,30.5520006 55.5498379,31.6402842 54.8071975,32.3992188 L38.9885764,48.6251892 C38.2160524,49.3841238 36.9018079,50.388443 34.8392006,49.845603" id="Shape"></path>
                </g>
            </g>
        </g>
    </g>
</svg>