<?xml version="1.0" encoding="utf-8"?>
<!-- Generator: Adobe Illustrator 16.0.0, SVG Export Plug-In . SVG Version: 6.00 Build 0)  -->
<!DOCTYPE svg PUBLIC "-//W3C//DTD SVG 1.1//EN" "http://www.w3.org/Graphics/SVG/1.1/DTD/svg11.dtd">
<svg version="1.1" id="Layer_1" xmlns="http://www.w3.org/2000/svg" xmlns:xlink="http://www.w3.org/1999/xlink" x="0px" y="0px"
	 width="100px" height="100px" viewBox="0 0 100 100" enable-background="new 0 0 100 100" xml:space="preserve">
<g>
	<path fill="none" stroke="#148ECE" stroke-width="2" stroke-linecap="round" stroke-linejoin="round" stroke-miterlimit="10" d="
		M90.62,52.085L78.764,63.941c-0.557,0.557-1.297,0.882-2.086,0.882c-1.621,0-2.963-1.345-2.963-2.966v-5.93H55.928v17.785h5.93
		c1.621,0,2.966,1.344,2.966,2.967c0,0.787-0.324,1.526-0.882,2.084L52.085,90.62C51.529,91.177,50.787,91.5,50,91.5
		s-1.528-0.323-2.084-0.88L36.058,78.764c-0.555-0.557-0.879-1.296-0.879-2.084c0-1.621,1.342-2.966,2.964-2.966h5.929V55.93H26.286
		v5.928c0,1.621-1.343,2.967-2.965,2.967c-0.788,0-1.528-0.325-2.084-0.883L9.38,52.085C8.824,51.529,8.5,50.787,8.5,50
		c0-0.788,0.324-1.527,0.88-2.084l11.857-11.857c0.556-0.556,1.297-0.879,2.084-0.879c1.622,0,2.965,1.342,2.965,2.963v5.928h17.785
		V26.286h-5.929c-1.622,0-2.964-1.343-2.964-2.964c0-0.788,0.324-1.529,0.879-2.084L47.916,9.381C48.472,8.825,49.213,8.5,50,8.5
		s1.529,0.325,2.085,0.881l11.856,11.857c0.557,0.555,0.881,1.297,0.881,2.084c0,1.621-1.344,2.964-2.965,2.964h-5.931v17.785
		h17.787v-5.928c0-1.621,1.343-2.963,2.963-2.963c0.789,0,1.529,0.323,2.087,0.879L90.62,47.916c0.556,0.557,0.88,1.296,0.88,2.084
		C91.5,50.787,91.176,51.529,90.62,52.085z"/>
</g>
</svg>
