<?xml version="1.0" encoding="utf-8"?>
<!-- Generator: Adobe Illustrator 16.0.0, SVG Export Plug-In . SVG Version: 6.00 Build 0)  -->
<!DOCTYPE svg PUBLIC "-//W3C//DTD SVG 1.1//EN" "http://www.w3.org/Graphics/SVG/1.1/DTD/svg11.dtd">
<svg version="1.1" id="Layer_1" xmlns="http://www.w3.org/2000/svg" xmlns:xlink="http://www.w3.org/1999/xlink" x="0px" y="0px"
	 width="100px" height="100px" viewBox="0 0 100 100" enable-background="new 0 0 100 100" xml:space="preserve">
<g>
	<path fill="none" stroke="#148ECE" stroke-width="2" stroke-linecap="round" stroke-linejoin="round" stroke-miterlimit="10" d="
		M80.771,61.46L55.893,86.389c-1.213,1.166-2.887,1.875-4.609,1.875c-1.722,0-3.394-0.709-4.561-1.875L10.495,50.11
		c-2.584-2.534-4.61-7.448-4.61-11.046V17.986c0-3.547,2.939-6.486,6.484-6.486h21.08c3.596,0,8.511,2.027,11.094,4.611
		l36.229,36.178c1.168,1.216,1.875,2.887,1.875,4.609C82.646,58.622,81.938,60.294,80.771,61.46z M22.097,21.229
		c-3.596,0-6.484,2.888-6.484,6.486c0,3.598,2.889,6.485,6.484,6.485c3.601,0,6.487-2.887,6.487-6.485
		C28.584,24.117,25.697,21.229,22.097,21.229z M46.933,11.683c3.25,0.554,6.954,2.302,9.081,4.428L92.24,52.289
		c1.168,1.216,1.876,2.887,1.876,4.609c0,1.724-0.708,3.396-1.876,4.562L67.361,86.389c-1.215,1.166-3.282,2.709-6.526,1.875"/>
</g>
</svg>
