<?xml version="1.0" encoding="utf-8"?>
<!-- Generator: Adobe Illustrator 16.0.0, SVG Export Plug-In . SVG Version: 6.00 Build 0)  -->
<!DOCTYPE svg PUBLIC "-//W3C//DTD SVG 1.1//EN" "http://www.w3.org/Graphics/SVG/1.1/DTD/svg11.dtd">
<svg version="1.1" id="Layer_1" xmlns="http://www.w3.org/2000/svg" xmlns:xlink="http://www.w3.org/1999/xlink" x="0px" y="0px"
	 width="48px" height="48px" viewBox="0 0 48 48" enable-background="new 0 0 48 48" xml:space="preserve">
<g>
	<path fill="#148ECE" d="M24,11.7c4.007,0,4.479,0.015,6.062,0.086c1.463,0.069,2.256,0.314,2.787,0.519
		c0.698,0.27,1.197,0.595,1.726,1.121c0.524,0.525,0.848,1.024,1.118,1.724c0.203,0.528,0.455,1.323,0.519,2.786
		c0.069,1.582,0.085,2.059,0.085,6.062c0,4.007-0.018,4.48-0.085,6.062c-0.071,1.463-0.313,2.256-0.519,2.785
		c-0.271,0.7-0.594,1.201-1.118,1.728c-0.527,0.524-1.026,0.849-1.726,1.118c-0.529,0.205-1.324,0.449-2.787,0.519
		c-1.582,0.07-2.056,0.088-6.062,0.088c-4.003,0-4.482-0.019-6.062-0.088c-1.463-0.071-2.256-0.312-2.787-0.519
		c-0.699-0.271-1.2-0.594-1.725-1.118c-0.525-0.525-0.849-1.026-1.119-1.729c-0.206-0.526-0.45-1.321-0.519-2.784
		c-0.069-1.58-0.083-2.056-0.083-6.062c0-4.002,0.015-4.48,0.083-6.062c0.07-1.463,0.313-2.256,0.519-2.786
		c0.271-0.7,0.594-1.199,1.119-1.724c0.525-0.525,1.026-0.851,1.725-1.121c0.529-0.205,1.324-0.45,2.787-0.519
		C19.518,11.715,19.997,11.7,24,11.7 M24,8.999c-4.074,0-4.584,0.017-6.185,0.089c-1.595,0.073-2.688,0.325-3.642,0.698
		c-0.985,0.383-1.82,0.896-2.656,1.729c-0.834,0.833-1.346,1.67-1.729,2.656c-0.374,0.954-0.626,2.046-0.699,3.643
		C9.017,19.415,9,19.925,9,23.998c0,4.074,0.018,4.582,0.088,6.186c0.074,1.602,0.325,2.688,0.699,3.64
		c0.384,0.987,0.896,1.829,1.729,2.659c0.835,0.83,1.671,1.348,2.656,1.729c0.955,0.372,2.047,0.622,3.642,0.699
		c1.601,0.07,2.111,0.091,6.185,0.091c4.073,0,4.589-0.021,6.185-0.089c1.601-0.078,2.688-0.327,3.641-0.699
		c0.988-0.382,1.826-0.895,2.658-1.729c0.838-0.83,1.347-1.672,1.729-2.659c0.374-0.95,0.623-2.038,0.701-3.64
		C38.98,28.589,39,28.074,39,24c0-4.073-0.021-4.584-0.088-6.183c-0.078-1.597-0.327-2.689-0.701-3.643
		c-0.382-0.986-0.893-1.822-1.729-2.656c-0.832-0.834-1.67-1.347-2.658-1.729c-0.951-0.373-2.04-0.626-3.641-0.698
		C28.589,9.016,28.073,8.999,24,8.999L24,8.999z"/>
	<path fill="#148ECE" d="M24,16.296c-4.257,0-7.705,3.451-7.705,7.703c0,4.253,3.452,7.705,7.705,7.705
		c4.252,0,7.705-3.453,7.705-7.705C31.705,19.743,28.253,16.296,24,16.296z M24,29.002c-2.763,0-5-2.243-5-5.003
		C19,21.236,21.237,19,24,19c2.76,0,5.001,2.236,5.001,4.999C29.001,26.759,26.76,29.002,24,29.002z"/>
	<circle fill="#148ECE" cx="32.006" cy="15.991" r="1.802"/>
</g>
</svg>
