<?xml version="1.0" encoding="utf-8"?>
<!-- Generator: Adobe Illustrator 16.0.0, SVG Export Plug-In . SVG Version: 6.00 Build 0)  -->
<!DOCTYPE svg PUBLIC "-//W3C//DTD SVG 1.1//EN" "http://www.w3.org/Graphics/SVG/1.1/DTD/svg11.dtd">
<svg version="1.1" id="Layer_1" xmlns="http://www.w3.org/2000/svg" xmlns:xlink="http://www.w3.org/1999/xlink" x="0px" y="0px"
	 width="16px" height="16px" viewBox="0 0 16 16" enable-background="new 0 0 16 16" xml:space="preserve">
<g>
	<circle fill="#148ECE" cx="8" cy="8" r="8"/>
	<g opacity="0.9">
		<path fill="#FFFFFF" d="M11.792,5.418L8.99,8.221v4.215c0,0.148-0.091,0.279-0.222,0.336C8.724,12.789,8.671,12.8,8.628,12.8
			c-0.098,0-0.188-0.034-0.256-0.107l-1.454-1.454C6.85,11.17,6.81,11.078,6.81,10.981V8.221L4.006,5.418
			C3.899,5.317,3.872,5.158,3.927,5.021C3.984,4.891,4.115,4.8,4.264,4.8h7.272c0.148,0,0.278,0.091,0.336,0.222
			C11.929,5.158,11.899,5.317,11.792,5.418z"/>
	</g>
</g>
</svg>
