<?xml version="1.0" encoding="UTF-8"?>
<svg width="48px" height="48px" viewBox="0 0 48 48" version="1.1" xmlns="http://www.w3.org/2000/svg" xmlns:xlink="http://www.w3.org/1999/xlink">
    <!-- Generator: Sketch 42 (36781) - http://www.bohemiancoding.com/sketch -->
    <title>in_2</title>
    <desc>Created with Sketch.</desc>
    <defs></defs>
    <g id="Page-1" stroke="none" stroke-width="1" fill="none" fill-rule="evenodd">
        <g id="in_2" fill="#148ECE">
            <path d="M17.5,10.5 C17.5,11.0833363 17.3030323,11.5624981 16.9090909,11.9375 C16.5151495,12.3125019 16.0454573,12.5 15.5,12.5 C14.9242395,12.5 14.4469716,12.3125019 14.0681818,11.9375 C13.689392,11.5624981 13.5,11.0833363 13.5,10.5 C13.5,9.94444167 13.689392,9.47222417 14.0681818,9.08333333 C14.4469716,8.6944425 14.9242395,8.5 15.5,8.5 C16.0757605,8.5 16.5530284,8.6944425 16.9318182,9.08333333 C17.310608,9.47222417 17.5,9.94444167 17.5,10.5 Z M14,37 L14,15 L17,15 L17,37 L14,37 Z M38.1710223,37 C38.1710223,37 38.1710223,26.6858012 38.1710223,24.2332256 C38.1710223,23.2036349 38.1084496,21.8792785 37.4451398,20.434138 C36.7192573,19.0876259 36.2874019,18.7910747 35.7092572,18.390325 C35.1311125,17.9895754 34.3758058,17.7892036 33.4433144,17.7892036 C28.5287905,17.7892036 27,23 27,24 L27,37 L24,37 C24,37 24.0372997,15.2564798 24,15 L27,15 C27.0745993,15.6091395 27,20.1080729 27,20.1080729 C27,20.1080729 29,15 34.0622985,15 C35.5,15 36.7571807,15.2725057 37.6710223,15.8175252 C38.5848639,16.3625447 39.2842219,17.0758684 39.7691175,17.9575176 C40.254013,18.8391668 40.5803801,19.833011 40.7482286,20.93908 C40.916077,22.045149 41,23.1431866 41,24.2332256 L41,37 L38.1710223,37 Z"></path>
        </g>
    </g>
</svg>