<?xml version="1.0" encoding="UTF-8"?>
<svg width="100px" height="100px" viewBox="0 0 100 100" version="1.1" xmlns="http://www.w3.org/2000/svg" xmlns:xlink="http://www.w3.org/1999/xlink">
    <!-- Generator: Sketch 42 (36781) - http://www.bohemiancoding.com/sketch -->
    <title>iv-01</title>
    <desc>Created with Sketch.</desc>
    <defs></defs>
    <g id="Page-1" stroke="none" stroke-width="1" fill="none" fill-rule="evenodd" stroke-linecap="round" stroke-linejoin="round">
        <g id="Icons" transform="translate(-468.000000, -431.000000)" stroke-width="2" stroke="#0000DD">
            <g id="iv-01" transform="translate(473.000000, 445.000000)">
                <g id="Layer_1">
                    <path d="M75.771,50.46 L50.893,75.389 C49.68,76.555 48.006,77.264 46.284,77.264 C44.562,77.264 42.89,76.555 41.723,75.389 L5.495,39.11 C2.911,36.576 0.885,31.662 0.885,28.064 L0.885,6.986 C0.885,3.439 3.824,0.5 7.369,0.5 L28.449,0.5 C32.045,0.5 36.96,2.527 39.543,5.111 L75.772,41.289 C76.94,42.505 77.647,44.176 77.647,45.898 C77.646,47.622 76.938,49.294 75.771,50.46 Z M17.097,10.229 C13.501,10.229 10.613,13.117 10.613,16.715 C10.613,20.313 13.502,23.2 17.097,23.2 C20.698,23.2 23.584,20.313 23.584,16.715 C23.584,13.117 20.697,10.229 17.097,10.229 Z M41.933,0.683 C45.183,1.237 48.887,2.985 51.014,5.111 L87.24,41.289 C88.408,42.505 89.116,44.176 89.116,45.898 C89.116,47.622 88.408,49.294 87.24,50.46 L62.361,75.389 C61.146,76.555 59.079,78.098 55.835,77.264" id="Shape"></path>
                </g>
            </g>
        </g>
    </g>
</svg>