<?xml version="1.0" encoding="UTF-8"?>
<svg width="100px" height="100px" viewBox="0 0 100 100" version="1.1" xmlns="http://www.w3.org/2000/svg" xmlns:xlink="http://www.w3.org/1999/xlink">
    <!-- Generator: Sketch 42 (36781) - http://www.bohemiancoding.com/sketch -->
    <title>iv-02</title>
    <desc>Created with Sketch.</desc>
    <defs></defs>
    <g id="Page-1" stroke="none" stroke-width="1" fill="none" fill-rule="evenodd" stroke-linecap="round" stroke-linejoin="round">
        <g id="Icons" transform="translate(-616.000000, -434.000000)" stroke-width="2" stroke="#0000DD">
            <g id="iv-02" transform="translate(618.000000, 448.000000)">
                <g id="Layer_1">
                    <path d="M85.016,60.66 L96,60.66 L96,66.053 C96,69.03 91.957,71.444 87.016,71.444 L8.985,71.444 C4.042,71.443 0,69.029 0,66.053 L0,60.66 L10.985,60.66 M8.462,48.08 L8.462,9.542 C8.462,4.601 12.506,0.557 17.448,0.557 L78.552,0.557 C83.494,0.557 87.537,4.602 87.537,9.542 L87.537,48.08 C87.537,53.021 83.493,57.064 78.552,57.064 L17.448,57.064 C12.505,57.064 8.462,53.021 8.462,48.08 Z M15.652,48.08 C15.652,49.035 16.494,49.878 17.448,49.878 L78.552,49.878 C79.506,49.878 80.349,49.035 80.349,48.08 L80.349,9.542 C80.349,8.588 79.506,7.745 78.552,7.745 L17.448,7.745 C16.494,7.745 15.652,8.588 15.652,9.542 L15.652,48.08 Z M55.391,64.152 C55.391,63.646 54.998,63.254 54.495,63.254 L41.508,63.254 C41.003,63.254 40.611,63.649 40.611,64.152 C40.611,64.66 41.003,65.051 41.508,65.051 L54.494,65.051 C54.998,65.053 55.391,64.66 55.391,64.152 Z" id="Shape"></path>
                </g>
            </g>
        </g>
    </g>
</svg>