<?xml version="1.0" encoding="UTF-8"?>
<svg width="100px" height="100px" viewBox="0 0 100 100" version="1.1" xmlns="http://www.w3.org/2000/svg" xmlns:xlink="http://www.w3.org/1999/xlink">
    <!-- Generator: Sketch 42 (36781) - http://www.bohemiancoding.com/sketch -->
    <title>iv-04</title>
    <desc>Created with Sketch.</desc>
    <defs></defs>
    <g id="Page-1" stroke="none" stroke-width="1" fill="none" fill-rule="evenodd" stroke-linecap="round" stroke-linejoin="round">
        <g id="Icons" transform="translate(-949.000000, -435.000000)" stroke-width="2" stroke="#0000DD">
            <g id="iv-04" transform="translate(957.000000, 443.000000)">
                <g id="Layer_1">
                    <path d="M82.62,44.085 L70.764,55.941 C70.207,56.498 69.467,56.823 68.678,56.823 C67.057,56.823 65.715,55.478 65.715,53.857 L65.715,47.927 L47.928,47.927 L47.928,65.712 L53.858,65.712 C55.479,65.712 56.824,67.056 56.824,68.679 C56.824,69.466 56.5,70.205 55.942,70.763 L44.085,82.62 C43.529,83.177 42.787,83.5 42,83.5 C41.213,83.5 40.472,83.177 39.916,82.62 L28.058,70.764 C27.503,70.207 27.179,69.468 27.179,68.68 C27.179,67.059 28.521,65.714 30.143,65.714 L36.072,65.714 L36.072,47.93 L18.286,47.93 L18.286,53.858 C18.286,55.479 16.943,56.825 15.321,56.825 C14.533,56.825 13.793,56.5 13.237,55.942 L1.38,44.085 C0.824,43.529 0.5,42.787 0.5,42 C0.5,41.212 0.824,40.473 1.38,39.916 L13.237,28.059 C13.793,27.503 14.534,27.18 15.321,27.18 C16.943,27.18 18.286,28.522 18.286,30.143 L18.286,36.071 L36.071,36.071 L36.071,18.286 L30.142,18.286 C28.52,18.286 27.178,16.943 27.178,15.322 C27.178,14.534 27.502,13.793 28.057,13.238 L39.916,1.381 C40.472,0.825 41.213,0.5 42,0.5 C42.787,0.5 43.529,0.825 44.085,1.381 L55.941,13.238 C56.498,13.793 56.822,14.535 56.822,15.322 C56.822,16.943 55.478,18.286 53.857,18.286 L47.926,18.286 L47.926,36.071 L65.713,36.071 L65.713,30.143 C65.713,28.522 67.056,27.18 68.676,27.18 C69.465,27.18 70.205,27.503 70.763,28.059 L82.62,39.916 C83.176,40.473 83.5,41.212 83.5,42 C83.5,42.787 83.176,43.529 82.62,44.085 Z" id="Shape"></path>
                </g>
            </g>
        </g>
    </g>
</svg>